<svg xmlns="http://www.w3.org/2000/svg" xmlns:xlink="http://www.w3.org/1999/xlink" width="500" zoomAndPan="magnify" viewBox="0 0 375 374.999991" height="500" preserveAspectRatio="xMidYMid meet" version="1.0"><defs><clipPath id="a2f63915e3"><path d="M 152.765625 25.902344 L 222.167969 25.902344 L 222.167969 202.636719 L 152.765625 202.636719 Z M 152.765625 25.902344 " clip-rule="nonzero"/></clipPath><clipPath id="91f98af882"><path d="M 228.953125 25.902344 L 304.8125 25.902344 L 304.8125 202.636719 L 228.953125 202.636719 Z M 228.953125 25.902344 " clip-rule="nonzero"/></clipPath><clipPath id="3f8c0c2227"><path d="M 70.382812 25.902344 L 146.238281 25.902344 L 146.238281 202.636719 L 70.382812 202.636719 Z M 70.382812 25.902344 " clip-rule="nonzero"/></clipPath><clipPath id="4a7cfca590"><path d="M 91.003906 61 L 284.355469 61 L 284.355469 168 L 91.003906 168 Z M 91.003906 61 " clip-rule="nonzero"/></clipPath></defs><g clip-path="url(#a2f63915e3)"><path fill="#000000" d="M 152.765625 25.910156 L 222.167969 25.910156 L 222.167969 202.632812 L 152.765625 202.632812 L 152.765625 25.910156 " fill-opacity="1" fill-rule="nonzero"/></g><g clip-path="url(#91f98af882)"><path fill="#000000" d="M 305.1875 158.425781 L 228.523438 202.578125 L 151.859375 158.425781 L 151.859375 70.113281 L 228.523438 25.957031 L 305.1875 70.113281 Z M 305.1875 158.425781 " fill-opacity="1" fill-rule="nonzero"/></g><g clip-path="url(#3f8c0c2227)"><path fill="#000000" d="M 69.726562 70.113281 L 146.390625 25.957031 L 223.054688 70.113281 L 223.054688 158.425781 L 146.390625 202.578125 L 69.726562 158.425781 Z M 69.726562 70.113281 " fill-opacity="1" fill-rule="nonzero"/></g><g clip-path="url(#4a7cfca590)"><path fill="#ffffff" d="M 104.332031 125.074219 C 103.714844 124.863281 103.101562 124.664062 102.5 124.441406 C 102.308594 124.375 102.140625 124.3125 101.96875 124.234375 C 101.789062 125.816406 101.429688 127.378906 101.199219 128.925781 C 101.082031 129.742188 100.855469 130.824219 100.753906 131.765625 C 100.914062 131.589844 101.054688 131.421875 101.199219 131.242188 C 101.835938 130.496094 102.054688 129.644531 102.453125 128.761719 C 103.03125 127.503906 103.632812 126.261719 104.332031 125.074219 Z M 104.378906 122.273438 C 105.679688 120.8125 106.777344 119.109375 108.121094 117.746094 C 104.640625 110.714844 101.71875 103.15625 99.855469 95.523438 C 98.867188 91.46875 97.023438 87.535156 95.375 83.550781 C 96.167969 86.785156 97.097656 90 97.289062 92.839844 C 97.601562 97.226562 99.203125 101.15625 99.203125 105.617188 C 99.203125 109.644531 99.6875 113.628906 100.765625 117.503906 C 101.160156 118.925781 101.15625 121.765625 103.140625 122.113281 C 103.535156 122.183594 103.933594 122.285156 104.332031 122.351562 C 104.34375 122.328125 104.355469 122.3125 104.378906 122.273438 Z M 120.4375 117.238281 C 120.683594 114.480469 120.566406 111.441406 121.242188 108.742188 C 120.398438 108.386719 119.171875 108.324219 118.289062 108.140625 C 117.28125 107.929688 116.378906 107.539062 115.304688 107.433594 C 113.882812 107.289062 112.5625 106.832031 111.132812 106.695312 C 110.808594 106.660156 110.542969 106.597656 110.296875 106.527344 C 111.15625 109.121094 111.964844 113.472656 113.539062 115.382812 C 115.574219 115.570312 118.285156 116.476562 120.4375 117.238281 Z M 122.0625 106.492188 C 122.214844 106.1875 122.382812 105.902344 122.574219 105.613281 C 120.207031 105.207031 118.089844 104.113281 115.875 103.289062 C 115.800781 103.363281 115.753906 103.433594 115.652344 103.496094 C 115.199219 103.757812 114.804688 103.867188 114.269531 103.835938 C 113.828125 103.796875 113.347656 104.1875 112.863281 104.167969 C 112.824219 104.167969 112.777344 104.167969 112.730469 104.167969 C 112.695312 104.214844 112.644531 104.265625 112.601562 104.316406 C 112.746094 104.332031 112.886719 104.339844 113.046875 104.351562 C 114.128906 104.503906 115.457031 104.871094 116.511719 105.144531 C 118.339844 105.640625 120.304688 105.789062 122.0625 106.492188 Z M 156.804688 97.21875 C 157.277344 97.128906 157.730469 97.023438 158.207031 96.921875 C 156.527344 96.925781 154.886719 96.894531 153.363281 97.023438 C 148.058594 97.484375 142.183594 96.527344 137.117188 98.65625 C 133.5625 100.152344 129.089844 101.324219 125.238281 101.695312 C 123.589844 101.851562 120.710938 100.636719 118.898438 100.140625 C 116.980469 99.632812 115.160156 99.039062 113.226562 99.101562 C 114.089844 99.886719 115.863281 100.597656 117.660156 101.289062 C 119.578125 102.023438 124.332031 103.351562 124.332031 103.351562 C 124.542969 103.351562 124.6875 103.433594 124.828125 103.550781 C 128.308594 101.683594 134.324219 101.925781 137.410156 100.984375 C 143.617188 99.078125 150.429688 98.375 156.804688 97.21875 Z M 156.972656 94.292969 C 158.371094 94.28125 160.144531 94.417969 161.796875 94.277344 C 158.445312 92.421875 155.144531 90.054688 151.40625 89.785156 C 145.019531 89.289062 139.625 90.957031 133.394531 91.988281 C 127.761719 92.917969 121.503906 93.390625 116.1875 95.46875 C 115.066406 95.902344 114.269531 96.3125 113.707031 96.710938 C 116.621094 96.746094 119.4375 97.6875 122.382812 98.070312 C 125.046875 98.425781 126.03125 99.210938 129.015625 98.425781 C 131.074219 97.878906 133.496094 97.574219 135.441406 96.761719 C 139.714844 94.972656 143.992188 94.863281 148.550781 94.75 C 151.355469 94.683594 154.195312 94.332031 156.972656 94.292969 Z M 181.308594 64.234375 C 181.15625 64.140625 181.023438 64.015625 180.914062 63.824219 C 180.015625 62.25 167.75 64.246094 166.332031 64.523438 C 163.230469 65.148438 159.683594 65.464844 156.527344 65.632812 C 152.695312 65.828125 148.945312 66.695312 145.097656 66.914062 C 142.136719 67.070312 139.101562 66.816406 136.167969 67.15625 C 129.460938 67.929688 122.507812 68.195312 115.765625 68.652344 C 112.71875 68.847656 95.988281 68.605469 95.101562 72.144531 C 95.027344 72.457031 94.847656 72.667969 94.628906 72.808594 C 95.207031 77.089844 97.757812 80.835938 98.867188 84.929688 C 99.90625 88.746094 101.304688 92.609375 102.488281 96.375 C 104.625 103.144531 106.945312 109.847656 110.058594 116.234375 C 110.347656 116.066406 110.636719 115.917969 110.949219 115.789062 C 109.316406 112.886719 108.722656 108.742188 107.441406 105.839844 C 105.578125 101.628906 104.089844 97.023438 103.167969 92.511719 C 102.148438 87.597656 99.585938 82.332031 99.203125 77.398438 C 98.917969 73.492188 99.394531 72.867188 102.949219 71.972656 C 105.039062 71.453125 107.328125 71.554688 109.457031 71.453125 C 112.359375 71.320312 115.152344 70.273438 118.089844 70.144531 C 125.480469 69.84375 132.675781 69.191406 140.027344 68.445312 C 147.640625 67.675781 155.28125 67.554688 162.875 66.71875 C 169.046875 66.0625 175.113281 64.652344 181.308594 64.234375 Z M 184.097656 82.488281 C 184.085938 82.449219 184.070312 82.417969 184.058594 82.382812 C 183.953125 79.609375 182.757812 77.164062 182.730469 74.378906 C 182.71875 71.828125 181.9375 69.203125 181.515625 66.636719 C 176.007812 67.019531 170.648438 68.289062 165.148438 68.890625 C 159.070312 69.558594 152.96875 69.832031 146.882812 70.273438 C 140.078125 70.769531 133.289062 72.144531 126.488281 72.347656 C 121.101562 72.511719 115.765625 73.582031 110.46875 73.820312 C 108.507812 73.90625 106.582031 74.0625 104.625 74.226562 C 99.90625 74.625 101.578125 77.730469 102.707031 81.304688 C 103.976562 85.324219 104.71875 89.238281 105.726562 93.300781 C 106.4375 96.152344 107.46875 98.945312 108.519531 101.71875 C 108.578125 101.71875 108.625 101.695312 108.683594 101.695312 C 109.710938 101.695312 110.636719 101.640625 111.625 101.683594 C 110.636719 101.117188 109.804688 100.332031 109.480469 99.148438 C 108.210938 94.492188 117.929688 92.175781 120.628906 91.757812 C 129.027344 90.5 137.8125 87.207031 146.273438 87.207031 C 149.945312 87.207031 152.644531 87.457031 155.917969 88.539062 C 161.769531 82.65625 173.105469 84.699219 180.578125 83.03125 C 181.714844 82.777344 182.886719 82.601562 184.097656 82.488281 Z M 186.46875 82.394531 C 187.125 82.394531 187.773438 82.433594 188.414062 82.488281 C 187.328125 79.035156 186.285156 75.398438 184.972656 71.910156 C 185.089844 72.730469 185.164062 73.566406 185.140625 74.378906 C 185.058594 77.070312 186.355469 79.625 186.46875 82.382812 Z M 192.496094 138.277344 C 191.449219 137.292969 190.34375 136.105469 189.640625 135.421875 C 189.234375 135.007812 188.730469 134.628906 188.730469 133.992188 C 188.730469 133.921875 188.738281 133.882812 188.738281 133.835938 C 188.738281 133.835938 188.730469 133.835938 188.730469 133.828125 C 187.980469 133.230469 187.148438 132.761719 186.222656 132.433594 C 183.589844 131.386719 181.15625 129.984375 178.519531 128.890625 C 173.65625 126.871094 168.878906 124.417969 163.960938 122.535156 C 158.710938 120.535156 154.222656 117.394531 149.6875 114.132812 C 148.105469 113 146.167969 111.898438 144.695312 110.460938 C 142.59375 111.863281 142.507812 114.738281 142.035156 117.113281 C 141.8125 118.296875 141.703125 119.503906 141.644531 120.714844 C 141.59375 121.488281 141.03125 122.222656 140.847656 122.96875 C 143.785156 123.816406 146.6875 124.746094 149.480469 125.890625 C 157.25 129.070312 165.234375 130.980469 173.253906 133.304688 C 177.929688 134.644531 182.71875 135.429688 187.390625 136.757812 C 188.414062 137.046875 190.449219 137.761719 192.496094 138.277344 Z M 195.683594 159.027344 C 196 156.839844 196.21875 154.648438 196.492188 152.464844 C 195.960938 152.527344 195.4375 152.589844 194.902344 152.605469 C 194.421875 152.632812 193.929688 152.605469 193.417969 152.578125 C 194.132812 156.074219 194.484375 159.574219 194.996094 163.089844 C 195.058594 162.644531 195.132812 162.207031 195.1875 161.761719 C 195.3125 160.84375 195.554688 159.941406 195.683594 159.027344 Z M 190.125 87.753906 C 192.074219 87.648438 195.386719 88.09375 197.824219 87.863281 C 195.683594 86.632812 192.613281 85.742188 190.96875 85.347656 C 186.824219 84.355469 182.46875 85.070312 178.363281 85.808594 C 172.851562 86.800781 164.269531 85.84375 159.203125 89.011719 C 167.414062 93.425781 174.597656 89.875 182.910156 88.632812 C 185.285156 88.269531 187.746094 87.882812 190.125 87.753906 Z M 198.152344 90.460938 C 198.226562 90.359375 198.28125 90.253906 198.347656 90.144531 C 196.179688 90.320312 193.746094 89.964844 191.738281 90.070312 C 187.566406 90.308594 183.339844 91.035156 179.277344 91.953125 C 174.4375 93.054688 170.167969 94.007812 165.820312 93.574219 C 166.292969 93.886719 166.558594 94.492188 166.398438 95.011719 C 166.777344 94.960938 167.144531 94.921875 167.519531 94.898438 C 174.007812 94.621094 180.660156 93.785156 187.054688 92.53125 C 190.246094 91.902344 194.515625 90.332031 198.152344 90.460938 Z M 205.878906 96.425781 C 207.695312 96.164062 209.597656 95.953125 211.480469 95.613281 C 208.238281 95 205.015625 94.226562 201.800781 93.65625 C 192.253906 91.964844 182.335938 97.050781 172.679688 97.144531 C 163.621094 97.257812 154.558594 100.382812 145.566406 101.78125 C 139.910156 102.675781 133.832031 103.757812 128.269531 105.128906 C 122.757812 106.464844 123.191406 113.394531 122.730469 118.03125 C 122.769531 118.03125 122.808594 118.046875 122.828125 118.054688 C 127.945312 119.671875 133.277344 120.898438 138.527344 122.316406 C 139.140625 119.632812 139.703125 116.949219 140.175781 114.183594 C 140.433594 112.597656 140.820312 111.003906 141.5 109.546875 C 141.738281 109.023438 142.53125 108.714844 143.171875 108.457031 C 143.003906 108.132812 142.84375 107.808594 142.738281 107.457031 C 142.558594 106.886719 142.777344 106.453125 143.144531 106.199219 C 143.285156 105.945312 143.507812 105.753906 143.875 105.667969 C 151.03125 104.007812 158.085938 104.488281 165.367188 103.855469 C 165.378906 103.847656 165.394531 103.835938 165.40625 103.820312 C 168.300781 101.996094 172.359375 102.023438 176.105469 102.164062 C 176.226562 101.914062 176.460938 101.695312 176.824219 101.589844 C 182.792969 99.914062 189.835938 98.207031 196.09375 98.070312 C 199.550781 98.003906 202.535156 96.871094 205.878906 96.425781 Z M 227.148438 98.859375 C 223.8125 97.964844 220.492188 96.9375 217.074219 96.492188 C 216.957031 96.621094 216.796875 96.746094 216.578125 96.820312 C 210.320312 99.027344 203.808594 99.980469 197.199219 99.980469 C 195.828125 99.980469 188.308594 100.34375 188.4375 101.988281 C 191.136719 102.128906 193.734375 101.601562 196.429688 101.601562 C 198.082031 101.601562 199.625 101.417969 201.238281 101.199219 C 203.085938 100.933594 204.808594 100.191406 206.683594 100.003906 C 208.914062 99.785156 211.164062 99.730469 213.402344 99.730469 C 218.085938 99.730469 222.515625 99.199219 227.148438 98.859375 Z M 269.996094 105.171875 C 268.128906 104.402344 266.144531 103.808594 264.222656 103.808594 C 263.632812 103.808594 263.316406 103.402344 262.957031 103.003906 C 262.59375 102.609375 262.09375 102.265625 261.472656 101.964844 C 261.441406 101.964844 261.417969 101.964844 261.378906 101.953125 C 254.53125 99.679688 248.960938 102.648438 242.714844 104.777344 C 236.714844 106.832031 229.914062 109.234375 223.65625 110.101562 C 222.132812 110.320312 221.480469 107.984375 223.003906 107.785156 C 229.300781 106.898438 236.300781 104.683594 242.410156 102.265625 C 235.46875 103.390625 228.402344 103.945312 221.546875 105.40625 C 211.355469 107.574219 201.421875 109.234375 190.992188 109.238281 C 189.425781 109.238281 189.4375 106.832031 190.992188 106.832031 C 201.929688 106.820312 211.980469 104.304688 222.707031 102.648438 C 228.183594 101.808594 233.796875 101.222656 239.339844 100.394531 C 234.203125 100.574219 229.078125 100.933594 224.101562 101.644531 C 219.828125 102.265625 215.539062 102.140625 211.238281 102.140625 C 206.023438 102.140625 201.125 102.9375 195.976562 103.410156 C 191.75 103.785156 187.390625 104.710938 183.167969 104.710938 C 178.75 104.710938 170.816406 103.535156 166.855469 105.777344 C 166.667969 106.019531 166.371094 106.1875 166.007812 106.226562 C 159.109375 106.875 152.304688 106.410156 145.515625 107.796875 C 147.484375 111.09375 153.558594 113.996094 156.527344 115.75 C 160.875 118.285156 165.1875 120.445312 169.773438 122.535156 C 173.945312 124.441406 178.320312 125.890625 182.410156 127.964844 C 184.933594 129.246094 188.527344 130.023438 190.589844 132.101562 C 190.882812 132.386719 191.136719 132.824219 191.136719 133.242188 C 191.136719 133.460938 193.625 135.382812 193.636719 135.402344 C 196.128906 137.894531 195.828125 138.398438 199.128906 133.992188 C 199.742188 133.164062 200.820312 132.507812 201.742188 132.0625 C 205.351562 130.328125 209.972656 130.902344 213.835938 129.960938 C 217.496094 129.082031 219.53125 126.351562 222.429688 124.261719 C 224.730469 121.789062 228.292969 121.042969 231.15625 119.375 C 234.996094 117.113281 238.558594 114.230469 242.59375 112.273438 C 247.261719 110.003906 250.355469 106.71875 254.652344 104.777344 C 246.753906 104.933594 239.726562 110.921875 231.78125 112.519531 C 230.265625 112.828125 229.617188 110.496094 231.128906 110.195312 C 234.242188 109.566406 237.355469 108.726562 240.183594 107.277344 C 241.617188 106.527344 242.527344 105.789062 244.097656 105.523438 C 245.816406 105.222656 247.355469 104.316406 249.039062 103.945312 C 250.976562 103.511719 252.894531 102.925781 254.851562 102.609375 C 257.25 102.230469 260.128906 103.039062 262.304688 103.980469 C 263.726562 104.582031 262.5 106.671875 261.089844 106.058594 C 260.753906 105.914062 260.417969 105.777344 260.078125 105.667969 C 260.023438 105.679688 259.984375 105.71875 259.910156 105.730469 C 257.5625 106.09375 255.734375 106.660156 254.039062 107.539062 C 259.382812 106.960938 264.675781 106.0625 269.996094 105.171875 Z M 277.589844 115.246094 C 277.894531 115.027344 277.4375 111.933594 277.335938 111.550781 C 277.085938 110.398438 276.460938 109.722656 275.835938 108.90625 C 272.96875 106.441406 267.910156 107.828125 264.289062 108.304688 C 259.683594 108.921875 255.398438 109.917969 250.714844 110.308594 C 250.535156 110.320312 250.367188 110.292969 250.222656 110.242188 C 249.988281 110.4375 249.78125 110.636719 249.53125 110.847656 C 247.488281 112.746094 244.839844 113.6875 242.519531 115.195312 C 239.234375 117.316406 235.871094 119.644531 232.363281 121.449219 C 229.554688 122.898438 225.78125 123.839844 223.726562 126.402344 C 223.515625 126.664062 223.273438 126.785156 223.019531 126.796875 C 220.058594 129.070312 218.636719 131.21875 214.476562 132.289062 C 209.910156 133.476562 203.390625 132.277344 200.296875 136.410156 C 199.910156 136.929688 199.28125 137.6875 198.539062 138.371094 C 211.492188 135.753906 224.128906 131.894531 236.902344 128.535156 C 250.585938 124.9375 263.738281 120.953125 277.074219 116.148438 C 277.101562 115.8125 277.253906 115.484375 277.589844 115.246094 Z M 281.238281 130.445312 C 281.503906 129.589844 281.492188 128.667969 281.480469 127.738281 C 280.648438 128.316406 279.664062 128.78125 278.597656 129.136719 C 278.929688 130.695312 279.25 132.265625 279.550781 133.828125 C 279.746094 134.742188 279.792969 135.855469 280.1875 136.710938 C 280.238281 136.816406 280.265625 136.941406 280.289062 137.058594 C 281.007812 135.382812 281.035156 131.167969 281.238281 130.445312 Z M 273.929688 127.605469 C 276.605469 126.859375 281.722656 126.445312 281.609375 122.234375 C 281.582031 120.886719 281.492188 119.542969 281.429688 118.195312 C 281.375 118.179688 281.296875 118.179688 281.253906 118.128906 C 280.917969 117.875 280.355469 118.03125 279.964844 117.984375 C 279.746094 117.960938 279.523438 117.910156 279.316406 117.863281 C 279.265625 117.890625 279.226562 117.9375 279.171875 117.949219 C 271.140625 120.886719 263.195312 123.699219 255.097656 126.402344 C 248.886719 128.472656 242.335938 129.285156 236.101562 131.347656 C 224.140625 135.320312 211.316406 138.265625 198.984375 140.746094 C 198.921875 140.757812 198.886719 140.746094 198.835938 140.746094 C 196.707031 141.78125 194.46875 140.546875 192.191406 140.304688 C 188.414062 139.921875 183.890625 138.8125 180.28125 137.722656 C 171.9375 135.214844 163.453125 133.398438 155.160156 130.625 C 151.417969 129.386719 147.769531 127.8125 144.027344 126.550781 C 139.714844 125.125 135.285156 124.757812 130.980469 123.34375 C 126.105469 121.753906 121.3125 120.378906 116.378906 118.996094 C 113.128906 118.089844 110.722656 117.316406 108.675781 121.015625 C 108.328125 121.644531 107.675781 122.328125 107.0625 122.960938 C 107.964844 123.175781 108.867188 123.410156 109.773438 123.6875 C 114.488281 125.125 119.144531 126.746094 123.867188 128.207031 C 135.300781 131.769531 146.71875 135.34375 158.160156 138.917969 C 169.347656 142.421875 180.5 146.285156 191.789062 149.484375 C 197.746094 151.167969 205.328125 147.898438 211.132812 146.203125 C 216.027344 144.765625 220.890625 143.203125 225.785156 141.742188 C 236.839844 138.421875 247.902344 135.164062 258.972656 131.933594 C 263.957031 130.46875 268.925781 128.996094 273.929688 127.605469 Z M 100.09375 135.046875 C 97.941406 135.152344 98.316406 133.460938 98.316406 131.882812 C 98.316406 130.671875 98.683594 128.941406 99.070312 127.75 C 99.480469 126.484375 99.621094 124.324219 99.660156 122.980469 C 99.660156 122.875 99.699219 122.808594 99.722656 122.71875 C 99.441406 122.152344 99.335938 121.355469 98.953125 119.972656 C 97.792969 115.800781 96.792969 111.464844 96.792969 107.105469 C 96.792969 102.203125 95.425781 97.652344 94.878906 92.839844 C 94.195312 86.617188 90.679688 78.746094 92.148438 72.371094 C 92.148438 72.335938 92.136719 72.296875 92.136719 72.273438 C 92.097656 71.886719 92.222656 71.609375 92.414062 71.414062 C 92.441406 71.34375 92.453125 71.269531 92.488281 71.1875 C 92.621094 70.808594 92.871094 70.574219 93.171875 70.460938 C 95.703125 65.582031 106.0625 67.359375 110.46875 66.734375 C 118.941406 65.515625 127.605469 64.875 136.167969 64.742188 C 145.242188 64.609375 154.824219 64.140625 163.730469 62.347656 C 168.558594 61.382812 173.605469 61.253906 178.496094 61.253906 C 180.304688 61.253906 181.664062 60.832031 182.714844 62.195312 C 182.863281 62.273438 183.027344 62.414062 183.144531 62.601562 C 183.511719 63.171875 183.851562 63.761719 184.191406 64.367188 C 184.410156 64.535156 184.539062 64.789062 184.589844 65.070312 C 187.539062 70.605469 189.183594 77.042969 191.085938 82.933594 C 191.933594 83.125 192.765625 83.378906 193.570312 83.71875 C 195.878906 84.699219 199.703125 85.589844 201.316406 87.558594 C 201.742188 88.09375 201.800781 88.945312 201.210938 89.367188 C 201.199219 89.40625 201.1875 89.457031 201.175781 89.492188 C 200.980469 89.953125 200.882812 90.433594 200.679688 90.878906 C 200.679688 90.878906 200.679688 90.878906 200.664062 90.894531 C 205.988281 92.652344 212.378906 93.535156 217.910156 94.148438 C 223.320312 94.75 228.425781 97.09375 233.730469 97.824219 C 234.164062 97.875 234.410156 98.109375 234.527344 98.398438 C 238.207031 98.183594 241.917969 97.992188 245.597656 97.773438 C 247.476562 97.664062 249.285156 97.785156 251.066406 97.964844 C 251.34375 97.898438 251.578125 97.929688 251.785156 98.019531 C 253.832031 98.242188 255.851562 98.5 257.9375 98.515625 C 259.910156 98.554688 264.339844 98.5 264.859375 101.222656 C 264.871094 101.300781 273.25 104.007812 274.339844 104.582031 C 274.714844 104.777344 274.882812 105.066406 274.933594 105.367188 C 276.617188 105.980469 277.972656 107.226562 278.953125 108.960938 C 278.988281 109.011719 279.011719 109.0625 279.050781 109.121094 C 279.289062 109.566406 279.519531 110.0625 279.710938 110.585938 C 279.832031 110.90625 279.792969 111.171875 279.683594 111.402344 C 279.746094 111.875 279.785156 112.359375 279.832031 112.863281 C 279.941406 113.816406 280.082031 114.722656 279.953125 115.535156 C 280.132812 115.558594 280.324219 115.582031 280.515625 115.582031 C 281.167969 115.605469 281.925781 115.640625 282.46875 116.054688 C 282.71875 116.234375 282.898438 116.484375 282.992188 116.753906 C 283.433594 116.898438 283.785156 117.261719 283.8125 117.839844 C 283.914062 119.960938 284.308594 122.453125 283.707031 124.578125 C 283.914062 124.824219 284.003906 125.171875 283.925781 125.570312 C 283.601562 127.125 284.214844 128.902344 283.769531 130.394531 C 283.261719 132.101562 283.441406 133.921875 282.976562 135.660156 C 282.300781 138.136719 282.757812 140.089844 279.601562 140.175781 C 278.914062 140.199219 278.546875 139.730469 278.46875 139.207031 C 278.445312 139.175781 278.433594 139.160156 278.40625 139.125 C 277.765625 138.109375 277.617188 136.371094 277.386719 135.226562 C 277.023438 133.425781 276.667969 131.605469 276.265625 129.804688 C 274.179688 130.3125 272.03125 130.648438 270.429688 131.109375 C 257.179688 134.945312 243.949219 138.863281 230.734375 142.785156 C 224.402344 144.65625 218.121094 146.722656 211.765625 148.53125 C 207.589844 149.714844 203.234375 151.308594 198.863281 152.113281 C 198.875 152.226562 198.894531 152.308594 198.875 152.433594 C 198.382812 156.136719 197.441406 160.148438 197.382812 163.875 C 197.335938 166.390625 194.148438 167.800781 194.148438 167.800781 C 193.6875 167.800781 193.394531 167.449219 193.289062 167.015625 C 193.230469 166.894531 193.171875 166.777344 193.132812 166.613281 C 192.269531 161.800781 191.945312 156.957031 190.871094 152.1875 C 186.523438 151.207031 181.761719 148.828125 178.066406 147.675781 C 171.976562 145.769531 165.886719 143.875 159.804688 141.964844 C 145.21875 137.414062 131.636719 133.355469 119.210938 129.246094 C 115.140625 127.910156 110.808594 126.96875 106.640625 125.773438 C 106.621094 125.855469 106.621094 125.929688 106.570312 126 C 105.691406 127.464844 104.796875 129.058594 104.292969 130.695312 C 103.804688 132.277344 102.402344 133.21875 101.597656 134.59375 C 101.238281 135.226562 100.597656 135.28125 100.09375 135.046875 " fill-opacity="1" fill-rule="nonzero"/></g><path fill="#ffffff" d="M 202.074219 129.136719 C 202.304688 129.765625 201.824219 130.46875 201.238281 130.625 C 200.597656 130.808594 200.039062 130.457031 199.792969 129.894531 C 199.777344 129.867188 199.765625 129.832031 199.753906 129.792969 C 199.765625 129.816406 199.765625 129.832031 199.765625 129.84375 C 199.730469 129.765625 199.65625 129.59375 199.636719 129.558594 C 199.65625 129.59375 199.5 129.398438 199.464844 129.335938 L 199.464844 129.320312 C 199.425781 129.285156 199.347656 129.210938 199.308594 129.164062 C 198.707031 129.164062 198.214844 128.523438 198.214844 127.960938 C 198.214844 127.230469 198.757812 126.832031 199.414062 126.746094 C 200.703125 126.585938 201.691406 128.101562 202.074219 129.136719 " fill-opacity="1" fill-rule="nonzero"/><path fill="#ffffff" d="M 194.734375 126.746094 C 195.085938 127.351562 194.828125 128.015625 194.300781 128.394531 C 193.878906 128.691406 193.761719 128.585938 193.496094 128.925781 C 193.378906 129.082031 193.230469 129.210938 193.097656 129.359375 C 193.039062 129.414062 192.988281 129.476562 192.9375 129.539062 C 192.832031 129.683594 192.820312 129.707031 192.894531 129.632812 C 192.78125 130.289062 192 130.636719 191.410156 130.480469 C 190.742188 130.289062 190.472656 129.644531 190.578125 128.996094 C 190.703125 128.269531 191.304688 127.859375 191.714844 127.316406 C 191.945312 127.03125 192.179688 126.820312 192.484375 126.613281 C 192.636719 126.496094 192.820312 126.421875 193 126.363281 C 193.160156 126.324219 193.183594 126.3125 193.082031 126.3125 C 193.625 125.929688 194.421875 126.21875 194.734375 126.746094 " fill-opacity="1" fill-rule="nonzero"/><path fill="#ffffff" d="M 173.683594 111.65625 C 174.882812 111.65625 174.882812 114.074219 173.683594 114.074219 C 173.683594 114.074219 172.9375 114.074219 172.625 114.074219 C 172.144531 114.074219 171.832031 113.90625 171.648438 113.578125 C 171.550781 113.90625 171.3125 114.253906 170.839844 114.324219 C 169.457031 114.554688 168.183594 115.160156 166.839844 115.382812 C 165.546875 115.605469 164.296875 115.59375 162.992188 115.582031 C 161.453125 115.558594 161.441406 113.144531 162.992188 113.15625 C 164.453125 113.164062 165.945312 113.285156 167.316406 112.6875 C 168.234375 112.285156 169.214844 112.128906 170.207031 111.957031 C 170.816406 111.863281 171.273438 112.152344 171.53125 112.585938 C 171.648438 112.128906 172.011719 111.65625 172.625 111.65625 C 172.9375 111.65625 173.683594 111.65625 173.683594 111.65625 " fill-opacity="1" fill-rule="nonzero"/><path fill="#ffffff" d="M 173.371094 107.433594 C 173.71875 108.019531 173.476562 108.703125 172.9375 109.070312 C 172.730469 109.222656 172.488281 109.289062 172.335938 109.386719 C 171.949219 109.707031 171.453125 109.8125 170.976562 109.535156 C 170.449219 109.222656 170.15625 108.410156 170.542969 107.878906 C 170.75 107.585938 170.960938 107.34375 171.273438 107.1875 C 171.402344 107.128906 171.542969 107.078125 171.671875 107.027344 C 171.683594 107.023438 171.683594 107.011719 171.722656 107 C 172.261719 106.609375 173.054688 106.886719 173.371094 107.433594 " fill-opacity="1" fill-rule="nonzero"/><path fill="#ffffff" d="M 166.917969 108.179688 C 168.46875 108.140625 168.457031 110.558594 166.917969 110.597656 C 164.679688 110.652344 162.550781 111.132812 160.414062 111.707031 C 158.839844 112.140625 157.582031 113 155.933594 113.164062 C 154.390625 113.324219 154.402344 110.90625 155.933594 110.753906 C 157.128906 110.621094 158.046875 109.847656 159.191406 109.535156 C 160.007812 109.316406 160.855469 109.222656 161.667969 108.9375 C 163.371094 108.386719 165.117188 108.230469 166.917969 108.179688 " fill-opacity="1" fill-rule="nonzero"/><path fill="#000000" d="M 17.695312 247.347656 L 17.695312 231.847656 C 17.695312 227.082031 18.988281 223.589844 21.578125 221.371094 C 24.175781 219.152344 27.5625 218.042969 31.734375 218.042969 C 36.023438 218.042969 39.542969 219.082031 42.289062 221.152344 C 45.035156 223.21875 46.410156 226.058594 46.410156 229.675781 C 46.410156 231.359375 46.058594 232.5 45.351562 233.105469 C 44.652344 233.710938 43.488281 234.015625 41.855469 234.015625 C 38.929688 234.015625 37.40625 233.097656 37.296875 231.257812 C 37.171875 227.753906 35.4375 225.996094 32.085938 225.996094 C 28.578125 225.996094 26.824219 227.945312 26.824219 231.847656 L 26.824219 247.347656 C 26.824219 251.246094 28.59375 253.199219 32.136719 253.199219 C 33.234375 253.199219 34.140625 253.027344 34.859375 252.675781 C 35.574219 252.320312 36.089844 251.78125 36.40625 251.0625 C 36.71875 250.335938 36.929688 249.742188 37.027344 249.28125 C 37.128906 248.808594 37.21875 248.167969 37.296875 247.347656 C 37.441406 245.511719 38.9375 244.589844 41.785156 244.589844 C 43.46875 244.589844 44.652344 244.890625 45.351562 245.496094 C 46.058594 246.101562 46.410156 247.246094 46.410156 248.925781 C 46.410156 252.707031 45.035156 255.6875 42.289062 257.871094 C 39.542969 260.058594 36.023438 261.148438 31.734375 261.148438 C 27.5625 261.148438 24.175781 260.039062 21.578125 257.820312 C 18.988281 255.59375 17.695312 252.101562 17.695312 247.347656 Z M 17.695312 247.347656 " fill-opacity="1" fill-rule="nonzero"/><path fill="#000000" d="M 56.410156 247.347656 L 56.410156 231.847656 C 56.410156 227.082031 57.714844 223.589844 60.328125 221.371094 C 62.941406 219.152344 66.40625 218.042969 70.734375 218.042969 C 75.109375 218.042969 78.597656 219.152344 81.210938 221.371094 C 83.820312 223.589844 85.128906 227.082031 85.128906 231.847656 L 85.128906 247.347656 C 85.128906 252.101562 83.820312 255.59375 81.210938 257.820312 C 78.597656 260.039062 75.109375 261.148438 70.734375 261.148438 C 66.40625 261.148438 62.941406 260.039062 60.328125 257.820312 C 57.714844 255.59375 56.410156 252.101562 56.410156 247.347656 Z M 65.542969 247.347656 C 65.542969 251.246094 67.273438 253.199219 70.734375 253.199219 C 74.253906 253.199219 76.015625 251.246094 76.015625 247.347656 L 76.015625 231.847656 C 76.015625 227.945312 74.253906 225.996094 70.734375 225.996094 C 67.273438 225.996094 65.542969 227.945312 65.542969 231.847656 Z M 65.542969 247.347656 " fill-opacity="1" fill-rule="nonzero"/><path fill="#000000" d="M 96.828125 257.988281 L 96.828125 220.785156 C 96.828125 219.886719 97.273438 219.210938 98.171875 218.75 C 99.070312 218.277344 100.140625 218.042969 101.382812 218.042969 C 102.636719 218.042969 103.714844 218.277344 104.613281 218.75 C 105.507812 219.210938 105.957031 219.886719 105.957031 220.785156 L 105.957031 252.84375 L 119.289062 252.84375 C 120.105469 252.84375 120.742188 253.238281 121.207031 254.023438 C 121.675781 254.796875 121.914062 255.730469 121.914062 256.828125 C 121.914062 257.917969 121.675781 258.855469 121.207031 259.636719 C 120.742188 260.410156 120.105469 260.796875 119.289062 260.796875 L 100.796875 260.796875 C 99.707031 260.796875 98.769531 260.558594 97.988281 260.074219 C 97.214844 259.582031 96.828125 258.890625 96.828125 257.988281 Z M 96.828125 257.988281 " fill-opacity="1" fill-rule="nonzero"/><path fill="#000000" d="M 130.980469 247.347656 L 130.980469 231.847656 C 130.980469 227.082031 132.277344 223.589844 134.863281 221.371094 C 137.460938 219.152344 140.851562 218.042969 145.019531 218.042969 C 149.3125 218.042969 152.828125 219.082031 155.578125 221.152344 C 158.324219 223.21875 159.695312 226.058594 159.695312 229.675781 C 159.695312 231.359375 159.34375 232.5 158.636719 233.105469 C 157.941406 233.710938 156.777344 234.015625 155.140625 234.015625 C 152.214844 234.015625 150.695312 233.097656 150.585938 231.257812 C 150.457031 227.753906 148.722656 225.996094 145.371094 225.996094 C 141.863281 225.996094 140.109375 227.945312 140.109375 231.847656 L 140.109375 247.347656 C 140.109375 251.246094 141.878906 253.199219 145.421875 253.199219 C 146.519531 253.199219 147.429688 253.027344 148.148438 252.675781 C 148.859375 252.320312 149.378906 251.78125 149.691406 251.0625 C 150.003906 250.335938 150.214844 249.742188 150.316406 249.28125 C 150.417969 248.808594 150.503906 248.167969 150.585938 247.347656 C 150.726562 245.511719 152.222656 244.589844 155.074219 244.589844 C 156.753906 244.589844 157.941406 244.890625 158.636719 245.496094 C 159.34375 246.101562 159.695312 247.246094 159.695312 248.925781 C 159.695312 252.707031 158.324219 255.6875 155.578125 257.871094 C 152.828125 260.058594 149.3125 261.148438 145.019531 261.148438 C 140.851562 261.148438 137.460938 260.039062 134.863281 257.820312 C 132.277344 255.59375 130.980469 252.101562 130.980469 247.347656 Z M 130.980469 247.347656 " fill-opacity="1" fill-rule="nonzero"/><path fill="#000000" d="M 170.167969 257.988281 L 170.167969 220.785156 C 170.167969 219.886719 170.613281 219.210938 171.511719 218.75 C 172.410156 218.277344 173.480469 218.042969 174.722656 218.042969 C 175.976562 218.042969 177.054688 218.277344 177.953125 218.75 C 178.847656 219.210938 179.296875 219.886719 179.296875 220.785156 L 179.296875 235.125 L 190.933594 235.125 L 190.933594 220.785156 C 190.933594 219.886719 191.378906 219.210938 192.277344 218.75 C 193.171875 218.277344 194.242188 218.042969 195.488281 218.042969 C 196.742188 218.042969 197.816406 218.277344 198.714844 218.75 C 199.609375 219.210938 200.0625 219.886719 200.0625 220.785156 L 200.0625 257.988281 C 200.0625 258.890625 199.609375 259.582031 198.714844 260.074219 C 197.816406 260.558594 196.742188 260.796875 195.488281 260.796875 C 194.242188 260.796875 193.171875 260.558594 192.277344 260.074219 C 191.378906 259.582031 190.933594 258.890625 190.933594 257.988281 L 190.933594 242.136719 L 179.296875 242.136719 L 179.296875 257.988281 C 179.296875 258.890625 178.847656 259.582031 177.953125 260.074219 C 177.054688 260.558594 175.976562 260.796875 174.722656 260.796875 C 173.480469 260.796875 172.410156 260.558594 171.511719 260.074219 C 170.613281 259.582031 170.167969 258.890625 170.167969 257.988281 Z M 170.167969 257.988281 " fill-opacity="1" fill-rule="nonzero"/><path fill="#000000" d="M 211.746094 247.347656 L 211.746094 231.847656 C 211.746094 227.082031 213.050781 223.589844 215.664062 221.371094 C 218.273438 219.152344 221.742188 218.042969 226.070312 218.042969 C 230.441406 218.042969 233.933594 219.152344 236.546875 221.371094 C 239.15625 223.589844 240.464844 227.082031 240.464844 231.847656 L 240.464844 247.347656 C 240.464844 252.101562 239.15625 255.59375 236.546875 257.820312 C 233.933594 260.039062 230.441406 261.148438 226.070312 261.148438 C 221.742188 261.148438 218.273438 260.039062 215.664062 257.820312 C 213.050781 255.59375 211.746094 252.101562 211.746094 247.347656 Z M 220.875 247.347656 C 220.875 251.246094 222.609375 253.199219 226.070312 253.199219 C 229.589844 253.199219 231.351562 251.246094 231.351562 247.347656 L 231.351562 231.847656 C 231.351562 227.945312 229.589844 225.996094 226.070312 225.996094 C 222.609375 225.996094 220.875 227.945312 220.875 231.847656 Z M 220.875 247.347656 " fill-opacity="1" fill-rule="nonzero"/><path fill="#000000" d="M 252.164062 257.988281 L 252.164062 220.851562 C 252.164062 219.957031 252.609375 219.265625 253.507812 218.78125 C 254.402344 218.289062 255.476562 218.042969 256.71875 218.042969 C 258.476562 218.042969 259.773438 218.296875 260.605469 218.800781 C 261.445312 219.304688 262.390625 220.574219 263.445312 222.597656 L 272.925781 240.671875 L 272.925781 220.785156 C 272.925781 219.886719 273.371094 219.210938 274.273438 218.75 C 275.167969 218.277344 276.238281 218.042969 277.484375 218.042969 C 278.734375 218.042969 279.8125 218.277344 280.710938 218.75 C 281.605469 219.210938 282.054688 219.886719 282.054688 220.785156 L 282.054688 257.988281 C 282.054688 258.890625 281.605469 259.582031 280.710938 260.074219 C 279.8125 260.558594 278.734375 260.796875 277.484375 260.796875 C 274.996094 260.796875 273.300781 259.980469 272.40625 258.34375 L 261.292969 238.101562 L 261.292969 257.988281 C 261.292969 258.890625 260.84375 259.582031 259.949219 260.074219 C 259.046875 260.558594 257.972656 260.796875 256.71875 260.796875 C 255.476562 260.796875 254.402344 260.558594 253.507812 260.074219 C 252.609375 259.582031 252.164062 258.890625 252.164062 257.988281 Z M 252.164062 257.988281 " fill-opacity="1" fill-rule="nonzero"/><path fill="#000000" d="M 294.214844 257.988281 L 294.214844 220.851562 C 294.214844 219.957031 294.601562 219.265625 295.375 218.78125 C 296.15625 218.289062 297.09375 218.042969 298.183594 218.042969 L 319.011719 218.042969 C 319.910156 218.042969 320.585938 218.4375 321.046875 219.21875 C 321.519531 219.992188 321.753906 220.910156 321.753906 221.960938 C 321.753906 223.09375 321.511719 224.054688 321.03125 224.835938 C 320.546875 225.609375 319.875 225.996094 319.011719 225.996094 L 303.34375 225.996094 L 303.34375 235.882812 L 312.101562 235.882812 C 312.964844 235.882812 313.636719 236.234375 314.121094 236.941406 C 314.613281 237.636719 314.859375 238.46875 314.859375 239.445312 C 314.859375 240.34375 314.625 241.144531 314.15625 241.847656 C 313.683594 242.546875 313 242.890625 312.101562 242.890625 L 303.34375 242.890625 L 303.34375 252.84375 L 319.011719 252.84375 C 319.875 252.84375 320.546875 253.238281 321.03125 254.023438 C 321.511719 254.796875 321.753906 255.75 321.753906 256.878906 C 321.753906 257.933594 321.519531 258.855469 321.046875 259.636719 C 320.585938 260.410156 319.910156 260.796875 319.011719 260.796875 L 298.183594 260.796875 C 297.09375 260.796875 296.15625 260.558594 295.375 260.074219 C 294.601562 259.582031 294.214844 258.890625 294.214844 257.988281 Z M 294.214844 257.988281 " fill-opacity="1" fill-rule="nonzero"/><path fill="#000000" d="M 329.535156 253.785156 C 329.535156 252.6875 329.929688 251.597656 330.730469 250.507812 C 331.535156 249.410156 332.464844 248.859375 333.519531 248.859375 C 334.101562 248.859375 334.75 249.085938 335.46875 249.53125 C 336.199219 249.980469 336.855469 250.484375 337.453125 251.027344 C 338.058594 251.578125 338.902344 252.078125 339.992188 252.523438 C 341.089844 252.976562 342.246094 253.199219 343.457031 253.199219 C 344.976562 253.199219 346.304688 252.878906 347.441406 252.238281 C 348.570312 251.59375 349.140625 250.621094 349.140625 249.332031 C 349.140625 248.042969 348.5 246.910156 347.222656 245.933594 C 345.953125 244.960938 344.414062 244.078125 342.597656 243.277344 C 340.792969 242.484375 338.972656 241.589844 337.132812 240.589844 C 335.304688 239.59375 333.757812 238.179688 332.496094 236.351562 C 331.226562 234.515625 330.59375 232.328125 330.59375 229.792969 C 330.59375 225.738281 332.058594 222.707031 334.984375 220.699219 C 337.90625 218.695312 341.429688 217.691406 345.558594 217.691406 C 346.574219 217.691406 347.640625 217.753906 348.753906 217.875 C 349.863281 217.988281 351.105469 218.210938 352.484375 218.546875 C 353.871094 218.875 355.007812 219.40625 355.878906 220.144531 C 356.761719 220.882812 357.207031 221.785156 357.207031 222.835938 C 357.207031 223.855469 356.882812 224.910156 356.234375 225.996094 C 355.59375 227.082031 354.707031 227.625 353.578125 227.625 C 353.105469 227.625 352.105469 227.257812 350.585938 226.515625 C 349.070312 225.777344 347.394531 225.40625 345.558594 225.40625 C 343.609375 225.40625 342.144531 225.75 341.167969 226.433594 C 340.195312 227.117188 339.707031 227.945312 339.707031 228.921875 C 339.707031 229.820312 340.164062 230.636719 341.085938 231.375 C 342.003906 232.113281 343.140625 232.75 344.5 233.273438 C 345.863281 233.804688 347.355469 234.484375 348.972656 235.324219 C 350.59375 236.167969 352.089844 237.085938 353.460938 238.082031 C 354.824219 239.070312 355.964844 240.460938 356.871094 242.253906 C 357.789062 244.046875 358.25 246.09375 358.25 248.390625 C 358.25 252.492188 356.90625 255.6875 354.214844 257.972656 C 351.527344 260.25 348 261.386719 343.640625 261.386719 C 339.851562 261.386719 336.550781 260.609375 333.738281 259.046875 C 330.933594 257.480469 329.535156 255.726562 329.535156 253.785156 Z M 329.535156 253.785156 " fill-opacity="1" fill-rule="nonzero"/><path fill="#000000" d="M 65.449219 315.863281 L 65.449219 278.722656 C 65.449219 277.828125 65.835938 277.140625 66.609375 276.65625 C 67.390625 276.164062 68.328125 275.917969 69.417969 275.917969 L 89.726562 275.917969 C 90.621094 275.917969 91.296875 276.3125 91.761719 277.09375 C 92.230469 277.867188 92.464844 278.78125 92.464844 279.832031 C 92.464844 280.96875 92.21875 281.925781 91.726562 282.707031 C 91.242188 283.480469 90.574219 283.867188 89.726562 283.867188 L 74.578125 283.867188 L 74.578125 293.753906 L 83.40625 293.753906 C 84.253906 293.753906 84.921875 294.109375 85.40625 294.8125 C 85.898438 295.511719 86.144531 296.34375 86.144531 297.320312 C 86.144531 298.21875 85.910156 299.015625 85.4375 299.722656 C 84.976562 300.421875 84.300781 300.765625 83.40625 300.765625 L 74.578125 300.765625 L 74.578125 315.863281 C 74.578125 316.761719 74.128906 317.457031 73.234375 317.949219 C 72.332031 318.429688 71.257812 318.671875 70.003906 318.671875 C 68.761719 318.671875 67.6875 318.429688 66.792969 317.949219 C 65.894531 317.457031 65.449219 316.761719 65.449219 315.863281 Z M 65.449219 315.863281 " fill-opacity="1" fill-rule="nonzero"/><path fill="#000000" d="M 98.492188 314.921875 C 98.492188 314.8125 98.53125 314.597656 98.609375 314.28125 L 109.488281 278.605469 C 109.796875 277.632812 110.511719 276.882812 111.621094 276.355469 C 112.730469 275.828125 114.011719 275.5625 115.457031 275.5625 C 116.902344 275.5625 118.179688 275.828125 119.289062 276.355469 C 120.398438 276.882812 121.109375 277.632812 121.425781 278.605469 L 132.351562 314.28125 C 132.429688 314.597656 132.46875 314.8125 132.46875 314.921875 C 132.46875 315.941406 131.835938 316.820312 130.570312 317.5625 C 129.300781 318.300781 127.984375 318.671875 126.621094 318.671875 C 124.945312 318.671875 123.953125 318.109375 123.644531 316.972656 L 121.660156 309.660156 L 109.320312 309.660156 L 107.320312 316.972656 C 107.003906 318.109375 106.011719 318.671875 104.34375 318.671875 C 102.972656 318.671875 101.65625 318.300781 100.390625 317.5625 C 99.121094 316.820312 98.492188 315.941406 98.492188 314.921875 Z M 111.183594 302.648438 L 119.726562 302.648438 L 115.457031 286.960938 Z M 111.183594 302.648438 " fill-opacity="1" fill-rule="nonzero"/><path fill="#000000" d="M 141.714844 315.914062 L 141.714844 278.722656 C 141.714844 277.828125 142.101562 277.140625 142.875 276.65625 C 143.65625 276.164062 144.59375 275.917969 145.679688 275.917969 L 157.683594 275.917969 C 165.472656 275.917969 169.371094 279.386719 169.371094 286.324219 C 169.371094 291.011719 167.714844 294.070312 164.410156 295.503906 C 166.394531 296.242188 167.890625 297.308594 168.898438 298.699219 C 169.917969 300.078125 170.429688 302.136719 170.429688 304.867188 L 170.429688 306.09375 C 170.429688 310.464844 169.363281 313.65625 167.234375 315.660156 C 165.117188 317.671875 162.261719 318.671875 158.675781 318.671875 L 145.679688 318.671875 C 144.480469 318.671875 143.515625 318.402344 142.789062 317.863281 C 142.070312 317.316406 141.714844 316.664062 141.714844 315.914062 Z M 150.777344 310.71875 L 156.625 310.71875 C 159.742188 310.71875 161.300781 308.929688 161.300781 305.339844 L 161.300781 304.398438 C 161.300781 300.8125 159.742188 299.015625 156.625 299.015625 L 150.777344 299.015625 Z M 150.777344 292.007812 L 156.910156 292.007812 C 157.960938 292.007812 158.78125 291.609375 159.367188 290.8125 C 159.960938 290.003906 160.257812 289.058594 160.257812 287.972656 C 160.257812 286.875 159.960938 285.914062 159.367188 285.097656 C 158.78125 284.28125 157.960938 283.867188 156.910156 283.867188 L 150.777344 283.867188 Z M 150.777344 292.007812 " fill-opacity="1" fill-rule="nonzero"/><path fill="#000000" d="M 181.015625 315.863281 L 181.015625 278.65625 C 181.015625 277.917969 181.277344 277.277344 181.804688 276.742188 C 182.332031 276.195312 183.003906 275.917969 183.824219 275.917969 L 195.929688 275.917969 C 205.519531 275.917969 210.320312 280.085938 210.320312 288.425781 C 210.320312 294.511719 207.957031 298.476562 203.242188 300.3125 L 210.371094 313.222656 C 210.570312 313.503906 210.671875 313.859375 210.671875 314.28125 C 210.671875 315.417969 210.054688 316.492188 208.824219 317.511719 C 207.601562 318.519531 206.304688 319.023438 204.941406 319.023438 C 203.570312 319.023438 202.59375 318.460938 202.015625 317.324219 L 193.996094 301.773438 L 190.144531 301.773438 L 190.144531 315.863281 C 190.144531 316.761719 189.695312 317.457031 188.800781 317.949219 C 187.898438 318.429688 186.824219 318.671875 185.570312 318.671875 C 184.328125 318.671875 183.253906 318.429688 182.359375 317.949219 C 181.460938 317.457031 181.015625 316.761719 181.015625 315.863281 Z M 190.144531 294.746094 L 195.929688 294.746094 C 197.644531 294.746094 198.945312 294.328125 199.84375 293.484375 C 200.742188 292.644531 201.191406 291.257812 201.191406 289.316406 C 201.191406 287.367188 200.742188 285.96875 199.84375 285.128906 C 198.945312 284.289062 197.644531 283.867188 195.929688 283.867188 L 190.144531 283.867188 Z M 190.144531 294.746094 " fill-opacity="1" fill-rule="nonzero"/><path fill="#000000" d="M 221.019531 315.863281 L 221.019531 278.65625 C 221.019531 277.761719 221.464844 277.085938 222.363281 276.621094 C 223.257812 276.152344 224.332031 275.917969 225.574219 275.917969 C 226.828125 275.917969 227.902344 276.152344 228.804688 276.621094 C 229.699219 277.085938 230.148438 277.761719 230.148438 278.65625 L 230.148438 315.863281 C 230.148438 316.761719 229.699219 317.457031 228.804688 317.949219 C 227.902344 318.429688 226.828125 318.671875 225.574219 318.671875 C 224.332031 318.671875 223.257812 318.429688 222.363281 317.949219 C 221.464844 317.457031 221.019531 316.761719 221.019531 315.863281 Z M 221.019531 315.863281 " fill-opacity="1" fill-rule="nonzero"/><path fill="#000000" d="M 241.835938 305.222656 L 241.835938 289.71875 C 241.835938 284.957031 243.132812 281.464844 245.71875 279.246094 C 248.316406 277.027344 251.707031 275.917969 255.875 275.917969 C 260.167969 275.917969 263.683594 276.953125 266.433594 279.027344 C 269.179688 281.089844 270.550781 283.933594 270.550781 287.550781 C 270.550781 289.230469 270.199219 290.375 269.492188 290.980469 C 268.796875 291.585938 267.632812 291.886719 265.996094 291.886719 C 263.070312 291.886719 261.550781 290.972656 261.441406 289.132812 C 261.3125 285.625 259.578125 283.867188 256.226562 283.867188 C 252.71875 283.867188 250.964844 285.820312 250.964844 289.71875 L 250.964844 305.222656 C 250.964844 309.121094 252.734375 311.070312 256.277344 311.070312 C 257.375 311.070312 258.285156 310.898438 259.003906 310.550781 C 259.71875 310.191406 260.234375 309.65625 260.550781 308.9375 C 260.859375 308.210938 261.070312 307.617188 261.171875 307.152344 C 261.273438 306.683594 261.359375 306.039062 261.441406 305.222656 C 261.582031 303.382812 263.078125 302.464844 265.929688 302.464844 C 267.609375 302.464844 268.796875 302.765625 269.492188 303.371094 C 270.199219 303.976562 270.550781 305.121094 270.550781 306.800781 C 270.550781 310.578125 269.179688 313.558594 266.433594 315.746094 C 263.683594 317.929688 260.167969 319.023438 255.875 319.023438 C 251.707031 319.023438 248.316406 317.914062 245.71875 315.695312 C 243.132812 313.46875 241.835938 309.972656 241.835938 305.222656 Z M 241.835938 305.222656 " fill-opacity="1" fill-rule="nonzero"/><path fill="#000000" d="M 278.101562 314.921875 C 278.101562 314.8125 278.136719 314.597656 278.21875 314.28125 L 289.09375 278.605469 C 289.40625 277.632812 290.121094 276.882812 291.230469 276.355469 C 292.339844 275.828125 293.617188 275.5625 295.0625 275.5625 C 296.507812 275.5625 297.789062 275.828125 298.898438 276.355469 C 300.007812 276.882812 300.71875 277.632812 301.03125 278.605469 L 311.960938 314.28125 C 312.035156 314.597656 312.078125 314.8125 312.078125 314.921875 C 312.078125 315.941406 311.445312 316.820312 310.179688 317.5625 C 308.910156 318.300781 307.59375 318.671875 306.226562 318.671875 C 304.554688 318.671875 303.5625 318.109375 303.25 316.972656 L 301.269531 309.660156 L 288.925781 309.660156 L 286.925781 316.972656 C 286.609375 318.109375 285.621094 318.671875 283.949219 318.671875 C 282.582031 318.671875 281.265625 318.300781 280 317.5625 C 278.730469 316.820312 278.101562 315.941406 278.101562 314.921875 Z M 290.792969 302.648438 L 299.335938 302.648438 L 295.0625 286.960938 Z M 290.792969 302.648438 " fill-opacity="1" fill-rule="nonzero"/><path fill="#000000" d="M 146.792969 333.597656 C 148.476562 333.597656 149.945312 334.015625 151.214844 334.84375 L 150.140625 337.078125 C 149.554688 336.742188 148.921875 336.464844 148.242188 336.238281 C 147.566406 336.015625 147 335.902344 146.542969 335.902344 C 145.722656 335.902344 145.316406 336.179688 145.316406 336.726562 C 145.316406 337.085938 145.515625 337.375 145.921875 337.582031 C 146.324219 337.796875 146.816406 337.984375 147.398438 338.136719 C 147.992188 338.285156 148.582031 338.46875 149.164062 338.691406 C 149.746094 338.917969 150.242188 339.277344 150.644531 339.769531 C 151.046875 340.265625 151.25 340.878906 151.25 341.617188 C 151.25 342.707031 150.820312 343.550781 149.972656 344.15625 C 149.132812 344.761719 148.058594 345.066406 146.761719 345.066406 C 145.828125 345.066406 144.902344 344.90625 143.988281 344.578125 C 143.078125 344.253906 142.289062 343.816406 141.617188 343.265625 L 142.726562 341.0625 C 143.296875 341.558594 143.960938 341.960938 144.726562 342.273438 C 145.5 342.589844 146.1875 342.746094 146.792969 342.746094 C 147.253906 342.746094 147.609375 342.667969 147.871094 342.507812 C 148.125 342.339844 148.257812 342.097656 148.257812 341.769531 C 148.257812 341.457031 148.105469 341.199219 147.804688 340.996094 C 147.507812 340.785156 147.148438 340.625 146.710938 340.527344 C 146.273438 340.425781 145.792969 340.289062 145.28125 340.121094 C 144.765625 339.945312 144.289062 339.753906 143.851562 339.550781 C 143.414062 339.347656 143.046875 339.027344 142.742188 338.59375 C 142.449219 338.144531 142.304688 337.609375 142.304688 336.976562 C 142.304688 335.960938 142.714844 335.140625 143.53125 334.523438 C 144.347656 333.910156 145.4375 333.597656 146.792969 333.597656 Z M 146.792969 333.597656 " fill-opacity="1" fill-rule="nonzero"/><path fill="#000000" d="M 162.6875 342.894531 L 157.78125 342.894531 L 156.957031 344.964844 L 154.015625 344.964844 L 158.871094 333.714844 L 161.796875 333.714844 L 166.539062 344.964844 L 163.496094 344.964844 Z M 161.847656 340.726562 L 160.25 336.574219 L 158.601562 340.726562 Z M 161.847656 340.726562 " fill-opacity="1" fill-rule="nonzero"/><path fill="#000000" d="M 180.367188 344.964844 L 177.847656 344.964844 L 172.667969 338.039062 L 172.667969 344.964844 L 169.996094 344.964844 L 169.996094 333.714844 L 172.515625 333.714844 L 177.695312 340.660156 L 177.695312 333.714844 L 180.367188 333.714844 Z M 180.367188 344.964844 " fill-opacity="1" fill-rule="nonzero"/><path fill="#000000" d="M 194.023438 342.578125 L 198.78125 342.578125 L 198.78125 344.964844 L 191.167969 344.964844 L 191.167969 333.714844 L 194.023438 333.714844 Z M 194.023438 342.578125 " fill-opacity="1" fill-rule="nonzero"/><path fill="#000000" d="M 212.691406 333.714844 L 212.691406 340.238281 C 212.691406 341.730469 212.222656 342.914062 211.296875 343.785156 C 210.375 344.660156 209.128906 345.097656 207.5625 345.097656 C 205.980469 345.097656 204.722656 344.660156 203.78125 343.785156 C 202.839844 342.914062 202.367188 341.730469 202.367188 340.238281 L 202.367188 333.714844 L 205.226562 333.714844 L 205.226562 340.238281 C 205.226562 340.992188 205.445312 341.59375 205.882812 342.039062 C 206.320312 342.476562 206.882812 342.695312 207.578125 342.695312 C 208.261719 342.695312 208.808594 342.476562 209.210938 342.039062 C 209.621094 341.601562 209.832031 341.003906 209.832031 340.238281 L 209.832031 333.714844 Z M 212.691406 333.714844 " fill-opacity="1" fill-rule="nonzero"/><path fill="#000000" d="M 217.148438 333.714844 L 220.007812 333.714844 L 220.007812 344.964844 L 217.148438 344.964844 Z M 217.148438 333.714844 " fill-opacity="1" fill-rule="nonzero"/><path fill="#000000" d="M 228.992188 333.597656 C 230.675781 333.597656 232.144531 334.015625 233.414062 334.84375 L 232.339844 337.078125 C 231.753906 336.742188 231.121094 336.464844 230.4375 336.238281 C 229.765625 336.015625 229.199219 335.902344 228.742188 335.902344 C 227.921875 335.902344 227.515625 336.179688 227.515625 336.726562 C 227.515625 337.085938 227.714844 337.375 228.117188 337.582031 C 228.523438 337.796875 229.015625 337.984375 229.597656 338.136719 C 230.191406 338.285156 230.78125 338.46875 231.363281 338.691406 C 231.945312 338.917969 232.441406 339.277344 232.84375 339.769531 C 233.246094 340.265625 233.449219 340.878906 233.449219 341.617188 C 233.449219 342.707031 233.019531 343.550781 232.171875 344.15625 C 231.332031 344.761719 230.257812 345.066406 228.960938 345.066406 C 228.027344 345.066406 227.101562 344.90625 226.1875 344.578125 C 225.277344 344.253906 224.488281 343.816406 223.816406 343.265625 L 224.925781 341.0625 C 225.496094 341.558594 226.160156 341.960938 226.925781 342.273438 C 227.699219 342.589844 228.386719 342.746094 228.992188 342.746094 C 229.453125 342.746094 229.808594 342.667969 230.070312 342.507812 C 230.324219 342.339844 230.457031 342.097656 230.457031 341.769531 C 230.457031 341.457031 230.304688 341.199219 230.003906 340.996094 C 229.707031 340.785156 229.347656 340.625 228.910156 340.527344 C 228.472656 340.425781 227.992188 340.289062 227.480469 340.121094 C 226.964844 339.945312 226.488281 339.753906 226.050781 339.550781 C 225.613281 339.347656 225.242188 339.027344 224.941406 338.59375 C 224.648438 338.144531 224.503906 337.609375 224.503906 336.976562 C 224.503906 335.960938 224.910156 335.140625 225.730469 334.523438 C 226.546875 333.910156 227.636719 333.597656 228.992188 333.597656 Z M 228.992188 333.597656 " fill-opacity="1" fill-rule="nonzero"/></svg>