<svg xmlns="http://www.w3.org/2000/svg" viewBox="0 0 800 800"><defs><linearGradient x1="50%" y1="0%" x2="50%" y2="100%" id="a" gradientTransform="rotate(270)"><stop stop-color="hsl(238, 3%, 95%)" offset="0%"/><stop stop-color="hsl(232, 86%, 38%)" offset="45%"/><stop stop-color="hsl(167, 91%, 47%)" offset="100%"/></linearGradient></defs><rect width="100%" height="100%" fill="hsl(238, 3%, 95%)"/><g fill="url(#a)"><rect width="671" height="3" x="221.5" y="368.5" rx="1.5" transform="rotate(45 557 370)" opacity=".88"/><rect width="440" height="3" x="-79" y="615.5" rx="1.5" transform="rotate(45 141 617)" opacity=".38"/><rect width="251" height="3" x="369.5" y="165.5" rx="1.5" transform="rotate(45 495 167)" opacity=".22"/><rect width="336" height="3" x="125" y="737.5" rx="1.5" transform="rotate(45 293 739)" opacity=".92"/><rect width="437" height="3" x="127.5" y="447.5" rx="1.5" transform="rotate(45 346 449)" opacity=".79"/><rect width="82" height="3" x="602" y="635.5" rx="1.5" transform="rotate(45 643 637)" opacity=".94"/><rect width="99" height="3" x="634.5" y="707.5" rx="1.5" transform="rotate(45 684 709)" opacity=".8"/><rect width="174" height="3" x="572" y="174.5" rx="1.5" transform="rotate(45 659 176)" opacity=".35"/><rect width="308" height="3" x="-6" y="275.5" rx="1.5" transform="rotate(45 148 277)" opacity=".88"/><rect width="57" height="3" x="285.5" y="259.5" rx="1.5" transform="rotate(45 314 261)" opacity=".73"/><rect width="282" height="3" x="313" y="562.5" rx="1.5" transform="rotate(45 454 564)" opacity=".79"/><rect width="548" height="3" x="-241" y="375.5" rx="1.5" transform="rotate(45 33 377)" opacity=".95"/><rect width="140" height="3" x="104" y="545.5" rx="1.5" transform="rotate(45 174 547)" opacity=".49"/><rect width="214" height="3" x="233" y="348.5" rx="1.5" transform="rotate(45 340 350)" opacity=".29"/><rect width="187" height="3" x="204.5" y="105.5" rx="1.5" transform="rotate(45 298 107)" opacity=".94"/><rect width="518" height="3" x="355" y="562.5" rx="1.5" transform="rotate(45 614 564)" opacity=".63"/><rect width="252" height="3" x="-45" y="186.5" rx="1.5" transform="rotate(45 81 188)" opacity=".82"/><rect width="102" height="3" x="204" y="495.5" rx="1.5" transform="rotate(45 255 497)" opacity=".72"/><rect width="119" height="3" x="175.5" y="147.5" rx="1.5" transform="rotate(45 235 149)" opacity=".49"/><rect width="655" height="3" x="423.5" y="623.5" rx="1.5" transform="rotate(45 751 625)" opacity=".14"/><rect width="162" height="3" x="223" y="648.5" rx="1.5" transform="rotate(45 304 650)" opacity=".11"/><rect width="53" height="3" x="121.5" y="41.5" rx="1.5" transform="rotate(45 148 43)" opacity=".54"/><rect width="448" height="3" x="316" y="490.5" rx="1.5" transform="rotate(45 540 492)" opacity=".67"/><rect width="240" height="3" x="38" y="479.5" rx="1.5" transform="rotate(45 158 481)" opacity=".31"/><rect width="468" height="3" x="513" y="421.5" rx="1.5" transform="rotate(45 747 423)" opacity=".94"/><rect width="542" height="3" x="-44" y="239.5" rx="1.5" transform="rotate(45 227 241)" opacity=".51"/><rect width="179" height="3" x="668.5" y="236.5" rx="1.5" transform="rotate(45 758 238)" opacity=".34"/><rect width="362" height="3" x="172" y="182.5" rx="1.5" transform="rotate(45 353 184)" opacity=".21"/><rect width="206" height="3" x="649" y="142.5" rx="1.5" transform="rotate(45 752 144)" opacity=".43"/><rect width="417" height="3" x="-11.5" y="683.5" rx="1.5" transform="rotate(45 197 685)" opacity=".92"/><rect width="167" height="3" x="377.5" y="771.5" rx="1.5" transform="rotate(45 461 773)" opacity=".78"/><rect width="155" height="3" x="370.5" y="254.5" rx="1.5" transform="rotate(45 448 256)" opacity=".99"/><rect width="612" height="3" x="343" y="479.5" rx="1.5" transform="rotate(45 649 481)" opacity=".73"/><rect width="65" height="3" x="207.5" y="588.5" rx="1.5" transform="rotate(45 240 590)" opacity=".83"/><rect width="97" height="3" x="246.5" y="25.5" rx="1.5" transform="rotate(45 295 27)" opacity=".76"/><rect width="255" height="3" x="251.5" y="585.5" rx="1.5" transform="rotate(45 379 587)" opacity=".52"/><rect width="422" height="3" x="390" y="757.5" rx="1.5" transform="rotate(45 601 759)" opacity=".52"/><rect width="304" height="3" x="215" y="744.5" rx="1.5" transform="rotate(45 367 746)" opacity=".77"/><rect width="373" height="3" x="-152.5" y="238.5" rx="1.5" transform="rotate(45 34 240)" opacity=".58"/><rect width="174" height="3" x="369" y="23.5" rx="1.5" transform="rotate(45 456 25)" opacity=".96"/><rect width="468" height="3" x="-181" y="544.5" rx="1.5" transform="rotate(45 53 546)" opacity=".58"/><rect width="275" height="3" x="439.5" y="152.5" rx="1.5" transform="rotate(45 577 154)" opacity=".98"/><rect width="239" height="3" x="111.5" y="429.5" rx="1.5" transform="rotate(45 231 431)" opacity=".96"/><rect width="457" height="3" x="-100.5" y="732.5" rx="1.5" transform="rotate(45 128 734)" opacity=".85"/><rect width="313" height="3" x="-126.5" y="664.5" rx="1.5" transform="rotate(45 30 666)" opacity=".24"/><rect width="403" height="3" x="545.5" y="520.5" rx="1.5" transform="rotate(45 747 522)" opacity=".16"/><rect width="199" height="3" x="-66.5" y="758.5" rx="1.5" transform="rotate(45 33 760)" opacity=".33"/><rect width="109" height="3" x="525.5" y="271.5" rx="1.5" transform="rotate(45 580 273)" opacity=".83"/><rect width="366" height="3" x="-68" y="334.5" rx="1.5" transform="rotate(45 115 336)" opacity=".6"/><rect width="274" height="3" x="-54" y="33.5" rx="1.5" transform="rotate(45 83 35)" opacity=".97"/><rect width="477" height="3" x="187.5" y="447.5" rx="1.5" transform="rotate(45 426 449)"/><rect width="335" height="3" x="454.5" y="50.5" rx="1.5" transform="rotate(45 622 52)" opacity=".86"/><rect width="493" height="3" x="-37.5" y="764.5" rx="1.5" transform="rotate(45 209 766)" opacity=".45"/><rect width="672" height="3" x="326" y="369.5" rx="1.5" transform="rotate(45 662 371)" opacity=".18"/><rect width="566" height="3" x="469" y="749.5" rx="1.5" transform="rotate(45 752 751)" opacity=".86"/><rect width="45" height="3" x="666.5" y="277.5" rx="1.5" transform="rotate(45 689 279)" opacity=".99"/><rect width="130" height="3" x="-25" y="113.5" rx="1.5" transform="rotate(45 40 115)" opacity=".87"/><rect width="303" height="3" x="612.5" y="334.5" rx="1.5" transform="rotate(45 764 336)" opacity=".48"/><rect width="181" height="3" x="2.5" y="670.5" rx="1.5" transform="rotate(45 93 672)" opacity=".2"/><rect width="112" height="3" x="178" y="352.5" rx="1.5" transform="rotate(45 234 354)" opacity=".46"/><rect width="125" height="3" x="38.5" y="773.5" rx="1.5" transform="rotate(45 101 775)" opacity=".93"/><rect width="444" height="3" x="-7" y="54.5" rx="1.5" transform="rotate(45 215 56)" opacity=".63"/><rect width="101" height="3" x="-26.5" y="37.5" rx="1.5" transform="rotate(45 24 39)" opacity=".3"/><rect width="630" height="3" x="133" y="693.5" rx="1.5" transform="rotate(45 448 695)" opacity=".74"/><rect width="481" height="3" x="255.5" y="417.5" rx="1.5" transform="rotate(45 496 419)" opacity=".12"/><rect width="173" height="3" x="11.5" y="437.5" rx="1.5" transform="rotate(45 98 439)" opacity=".16"/><rect width="56" height="3" x="290" y="530.5" rx="1.5" transform="rotate(45 318 532)" opacity=".6"/><rect width="149" height="3" x="77.5" y="198.5" rx="1.5" transform="rotate(45 152 200)" opacity=".73"/><rect width="95" height="3" x="686.5" y="48.5" rx="1.5" transform="rotate(45 734 50)" opacity=".4"/><rect width="56" height="3" x="382" y="47.5" rx="1.5" transform="rotate(45 410 49)" opacity=".6"/><rect width="184" height="3" x="38" y="121.5" rx="1.5" transform="rotate(45 130 123)" opacity=".81"/><rect width="292" height="3" x="209" y="67.5" rx="1.5" transform="rotate(45 355 69)" opacity=".59"/><rect width="437" height="3" x="303.5" y="54.5" rx="1.5" transform="rotate(45 522 56)" opacity=".4"/><rect width="177" height="3" x="348.5" y="342.5" rx="1.5" transform="rotate(45 437 344)" opacity=".73"/><rect width="151" height="3" x="460.5" y="682.5" rx="1.5" transform="rotate(45 536 684)" opacity=".59"/><rect width="214" height="3" x="313" y="129.5" rx="1.5" transform="rotate(45 420 131)" opacity=".78"/><rect width="89" height="3" x="488.5" y="597.5" rx="1.5" transform="rotate(45 533 599)" opacity=".18"/></g></svg>