<svg xmlns="http://www.w3.org/2000/svg" xmlns:xlink="http://www.w3.org/1999/xlink" width="96" zoomAndPan="magnify" viewBox="0 0 72 72" height="96" preserveAspectRatio="xMidYMid meet" version="1.0"><defs><clipPath id="417130f42c"><path d="M 29.371094 4.847656 L 42.785156 4.847656 L 42.785156 39.011719 L 29.371094 39.011719 Z M 29.371094 4.847656 " clip-rule="nonzero"/></clipPath><clipPath id="842cb9d92c"><path d="M 44.097656 4.847656 L 58.761719 4.847656 L 58.761719 39 L 44.097656 39 Z M 44.097656 4.847656 " clip-rule="nonzero"/></clipPath><clipPath id="29862b8964"><path d="M 13.445312 4.847656 L 28.109375 4.847656 L 28.109375 39 L 13.445312 39 Z M 13.445312 4.847656 " clip-rule="nonzero"/></clipPath><clipPath id="b927ba5496"><path d="M 17.429688 11.605469 L 54.804688 11.605469 L 54.804688 32.324219 L 17.429688 32.324219 Z M 17.429688 11.605469 " clip-rule="nonzero"/></clipPath></defs><g clip-path="url(#417130f42c)"><path fill="#000000" d="M 29.371094 4.847656 L 42.785156 4.847656 L 42.785156 39.007812 L 29.371094 39.007812 L 29.371094 4.847656 " fill-opacity="1" fill-rule="nonzero"/></g><g clip-path="url(#842cb9d92c)"><path fill="#000000" d="M 58.835938 30.464844 L 44.015625 39 L 29.195312 30.464844 L 29.195312 13.390625 L 44.015625 4.855469 L 58.835938 13.390625 Z M 58.835938 30.464844 " fill-opacity="1" fill-rule="nonzero"/></g><g clip-path="url(#29862b8964)"><path fill="#000000" d="M 13.316406 13.390625 L 28.136719 4.855469 L 42.957031 13.390625 L 42.957031 30.464844 L 28.136719 39 L 13.316406 30.464844 Z M 13.316406 13.390625 " fill-opacity="1" fill-rule="nonzero"/></g><g clip-path="url(#b927ba5496)"><path fill="#ffffff" d="M 20.007812 24.015625 C 19.886719 23.976562 19.769531 23.9375 19.652344 23.894531 C 19.617188 23.882812 19.582031 23.867188 19.550781 23.855469 C 19.515625 24.160156 19.445312 24.460938 19.402344 24.761719 C 19.378906 24.917969 19.335938 25.128906 19.316406 25.308594 C 19.347656 25.277344 19.375 25.242188 19.402344 25.207031 C 19.523438 25.0625 19.566406 24.898438 19.644531 24.730469 C 19.753906 24.484375 19.871094 24.246094 20.007812 24.015625 Z M 20.015625 23.476562 C 20.265625 23.191406 20.480469 22.863281 20.738281 22.601562 C 20.066406 21.242188 19.5 19.78125 19.140625 18.304688 C 18.949219 17.519531 18.59375 16.757812 18.273438 15.988281 C 18.429688 16.613281 18.609375 17.238281 18.644531 17.785156 C 18.707031 18.632812 19.015625 19.394531 19.015625 20.253906 C 19.015625 21.035156 19.109375 21.804688 19.316406 22.554688 C 19.394531 22.828125 19.394531 23.375 19.777344 23.445312 C 19.851562 23.457031 19.929688 23.476562 20.007812 23.492188 C 20.007812 23.484375 20.011719 23.480469 20.015625 23.476562 Z M 23.121094 22.5 C 23.167969 21.96875 23.144531 21.382812 23.277344 20.859375 C 23.113281 20.789062 22.875 20.777344 22.703125 20.742188 C 22.507812 20.703125 22.335938 20.625 22.128906 20.605469 C 21.851562 20.578125 21.597656 20.488281 21.320312 20.464844 C 21.257812 20.457031 21.207031 20.445312 21.160156 20.429688 C 21.324219 20.933594 21.480469 21.773438 21.785156 22.144531 C 22.179688 22.179688 22.703125 22.355469 23.121094 22.5 Z M 23.433594 20.425781 C 23.464844 20.367188 23.496094 20.308594 23.535156 20.253906 C 23.074219 20.175781 22.667969 19.964844 22.238281 19.804688 C 22.222656 19.820312 22.214844 19.832031 22.195312 19.84375 C 22.109375 19.894531 22.03125 19.917969 21.929688 19.910156 C 21.84375 19.902344 21.75 19.980469 21.65625 19.976562 C 21.648438 19.976562 21.640625 19.976562 21.628906 19.976562 C 21.625 19.984375 21.613281 19.996094 21.605469 20.003906 C 21.632812 20.007812 21.660156 20.007812 21.691406 20.011719 C 21.898438 20.039062 22.15625 20.109375 22.359375 20.164062 C 22.714844 20.261719 23.09375 20.289062 23.433594 20.425781 Z M 30.152344 18.632812 C 30.242188 18.613281 30.328125 18.59375 30.421875 18.574219 C 30.097656 18.574219 29.777344 18.570312 29.484375 18.59375 C 28.460938 18.683594 27.324219 18.5 26.34375 18.910156 C 25.65625 19.199219 24.792969 19.425781 24.046875 19.496094 C 23.730469 19.527344 23.171875 19.292969 22.824219 19.195312 C 22.453125 19.097656 22.101562 18.984375 21.726562 18.996094 C 21.894531 19.148438 22.234375 19.285156 22.582031 19.417969 C 22.953125 19.558594 23.875 19.816406 23.875 19.816406 C 23.914062 19.816406 23.941406 19.832031 23.96875 19.855469 C 24.640625 19.496094 25.804688 19.542969 26.402344 19.359375 C 27.601562 18.992188 28.917969 18.855469 30.152344 18.632812 Z M 30.183594 18.066406 C 30.453125 18.0625 30.796875 18.089844 31.113281 18.0625 C 30.46875 17.703125 29.828125 17.246094 29.105469 17.195312 C 27.871094 17.097656 26.828125 17.421875 25.625 17.621094 C 24.535156 17.800781 23.328125 17.890625 22.296875 18.292969 C 22.082031 18.378906 21.929688 18.457031 21.820312 18.535156 C 22.382812 18.539062 22.925781 18.722656 23.496094 18.796875 C 24.011719 18.863281 24.203125 19.015625 24.777344 18.863281 C 25.175781 18.757812 25.644531 18.699219 26.019531 18.542969 C 26.847656 18.199219 27.671875 18.175781 28.554688 18.15625 C 29.097656 18.140625 29.644531 18.074219 30.183594 18.066406 Z M 34.886719 12.253906 C 34.855469 12.238281 34.832031 12.214844 34.8125 12.175781 C 34.636719 11.871094 32.265625 12.257812 31.992188 12.3125 C 31.390625 12.433594 30.707031 12.492188 30.097656 12.527344 C 29.355469 12.5625 28.632812 12.730469 27.886719 12.773438 C 27.316406 12.804688 26.726562 12.753906 26.160156 12.820312 C 24.863281 12.96875 23.519531 13.019531 22.21875 13.109375 C 21.628906 13.148438 18.394531 13.101562 18.222656 13.785156 C 18.207031 13.84375 18.171875 13.886719 18.132812 13.914062 C 18.242188 14.742188 18.734375 15.464844 18.949219 16.257812 C 19.152344 16.992188 19.421875 17.742188 19.652344 18.46875 C 20.0625 19.777344 20.511719 21.074219 21.113281 22.308594 C 21.171875 22.273438 21.226562 22.246094 21.285156 22.222656 C 20.96875 21.660156 20.855469 20.859375 20.609375 20.296875 C 20.246094 19.484375 19.960938 18.59375 19.78125 17.722656 C 19.585938 16.773438 19.089844 15.753906 19.015625 14.800781 C 18.960938 14.046875 19.050781 13.925781 19.738281 13.75 C 20.144531 13.652344 20.585938 13.671875 20.996094 13.652344 C 21.558594 13.625 22.097656 13.421875 22.667969 13.398438 C 24.09375 13.339844 25.484375 13.214844 26.90625 13.070312 C 28.378906 12.921875 29.855469 12.898438 31.324219 12.734375 C 32.515625 12.609375 33.691406 12.335938 34.886719 12.253906 Z M 35.425781 15.785156 C 35.421875 15.777344 35.421875 15.769531 35.417969 15.761719 C 35.398438 15.226562 35.167969 14.753906 35.160156 14.214844 C 35.160156 13.722656 35.007812 13.214844 34.925781 12.71875 C 33.863281 12.792969 32.824219 13.039062 31.761719 13.15625 C 30.589844 13.285156 29.410156 13.335938 28.230469 13.421875 C 26.917969 13.519531 25.605469 13.785156 24.289062 13.824219 C 23.25 13.855469 22.21875 14.0625 21.191406 14.109375 C 20.8125 14.125 20.441406 14.15625 20.0625 14.1875 C 19.152344 14.265625 19.472656 14.863281 19.691406 15.554688 C 19.9375 16.332031 20.082031 17.089844 20.277344 17.875 C 20.414062 18.425781 20.613281 18.964844 20.816406 19.5 C 20.828125 19.5 20.835938 19.496094 20.847656 19.496094 C 21.046875 19.496094 21.226562 19.488281 21.417969 19.496094 C 21.226562 19.386719 21.0625 19.234375 21 19.003906 C 20.757812 18.105469 22.636719 17.65625 23.15625 17.578125 C 24.78125 17.332031 26.480469 16.695312 28.113281 16.695312 C 28.824219 16.695312 29.347656 16.746094 29.980469 16.953125 C 31.109375 15.816406 33.300781 16.210938 34.746094 15.890625 C 34.964844 15.839844 35.191406 15.804688 35.425781 15.785156 Z M 35.882812 15.765625 C 36.011719 15.765625 36.136719 15.773438 36.261719 15.785156 C 36.050781 15.117188 35.847656 14.414062 35.59375 13.738281 C 35.617188 13.898438 35.632812 14.058594 35.628906 14.214844 C 35.613281 14.738281 35.863281 15.230469 35.882812 15.761719 Z M 37.050781 26.570312 C 36.847656 26.378906 36.632812 26.148438 36.496094 26.015625 C 36.417969 25.9375 36.320312 25.863281 36.320312 25.742188 C 36.320312 25.726562 36.324219 25.71875 36.324219 25.710938 C 36.324219 25.710938 36.320312 25.710938 36.320312 25.707031 C 36.175781 25.59375 36.015625 25.503906 35.835938 25.4375 C 35.328125 25.238281 34.855469 24.964844 34.347656 24.753906 C 33.40625 24.363281 32.484375 23.890625 31.535156 23.523438 C 30.519531 23.136719 29.652344 22.53125 28.773438 21.902344 C 28.46875 21.683594 28.09375 21.46875 27.808594 21.191406 C 27.402344 21.460938 27.386719 22.019531 27.296875 22.476562 C 27.253906 22.707031 27.230469 22.941406 27.21875 23.171875 C 27.210938 23.324219 27.101562 23.464844 27.066406 23.609375 C 27.632812 23.773438 28.195312 23.953125 28.734375 24.175781 C 30.238281 24.789062 31.78125 25.160156 33.328125 25.609375 C 34.234375 25.867188 35.160156 26.019531 36.0625 26.273438 C 36.261719 26.332031 36.652344 26.46875 37.050781 26.570312 Z M 37.667969 30.578125 C 37.726562 30.15625 37.769531 29.734375 37.820312 29.3125 C 37.71875 29.324219 37.617188 29.335938 37.515625 29.339844 C 37.421875 29.34375 37.328125 29.339844 37.226562 29.332031 C 37.367188 30.007812 37.433594 30.6875 37.53125 31.363281 C 37.546875 31.277344 37.558594 31.195312 37.570312 31.109375 C 37.59375 30.929688 37.640625 30.757812 37.667969 30.578125 Z M 36.589844 16.800781 C 36.96875 16.78125 37.609375 16.867188 38.078125 16.824219 C 37.667969 16.585938 37.070312 16.414062 36.753906 16.335938 C 35.953125 16.144531 35.113281 16.285156 34.316406 16.425781 C 33.25 16.617188 31.59375 16.433594 30.613281 17.042969 C 32.203125 17.898438 33.589844 17.210938 35.195312 16.972656 C 35.65625 16.902344 36.132812 16.828125 36.589844 16.800781 Z M 38.144531 17.324219 C 38.15625 17.304688 38.167969 17.285156 38.179688 17.265625 C 37.761719 17.296875 37.292969 17.230469 36.902344 17.25 C 36.097656 17.296875 35.28125 17.4375 34.492188 17.613281 C 33.558594 17.828125 32.734375 18.011719 31.894531 17.925781 C 31.984375 17.988281 32.035156 18.105469 32.003906 18.207031 C 32.078125 18.195312 32.148438 18.1875 32.222656 18.183594 C 33.476562 18.128906 34.761719 17.96875 36 17.726562 C 36.613281 17.605469 37.441406 17.300781 38.144531 17.324219 Z M 39.636719 18.476562 C 39.988281 18.429688 40.355469 18.386719 40.71875 18.320312 C 40.09375 18.203125 39.46875 18.054688 38.847656 17.941406 C 37.003906 17.617188 35.085938 18.597656 33.21875 18.617188 C 31.46875 18.640625 29.714844 19.242188 27.976562 19.515625 C 26.882812 19.6875 25.710938 19.894531 24.632812 20.160156 C 23.570312 20.417969 23.652344 21.757812 23.5625 22.65625 C 23.570312 22.65625 23.578125 22.65625 23.582031 22.660156 C 24.570312 22.972656 25.601562 23.210938 26.617188 23.484375 C 26.734375 22.964844 26.84375 22.445312 26.933594 21.910156 C 26.984375 21.605469 27.0625 21.296875 27.191406 21.015625 C 27.238281 20.914062 27.390625 20.855469 27.515625 20.804688 C 27.480469 20.742188 27.453125 20.679688 27.429688 20.609375 C 27.394531 20.5 27.4375 20.417969 27.511719 20.367188 C 27.535156 20.320312 27.578125 20.28125 27.652344 20.265625 C 29.035156 19.945312 30.398438 20.039062 31.804688 19.914062 C 31.808594 19.914062 31.808594 19.910156 31.8125 19.90625 C 32.371094 19.554688 33.15625 19.558594 33.882812 19.589844 C 33.902344 19.539062 33.949219 19.496094 34.019531 19.476562 C 35.175781 19.152344 36.535156 18.824219 37.746094 18.796875 C 38.414062 18.785156 38.992188 18.5625 39.636719 18.476562 Z M 43.75 18.949219 C 43.101562 18.777344 42.460938 18.578125 41.800781 18.492188 C 41.777344 18.515625 41.746094 18.539062 41.703125 18.554688 C 40.496094 18.980469 39.238281 19.164062 37.957031 19.164062 C 37.695312 19.164062 36.238281 19.234375 36.265625 19.554688 C 36.785156 19.582031 37.289062 19.480469 37.808594 19.480469 C 38.128906 19.480469 38.425781 19.445312 38.738281 19.402344 C 39.097656 19.351562 39.429688 19.207031 39.792969 19.171875 C 40.222656 19.128906 40.660156 19.117188 41.089844 19.117188 C 41.996094 19.117188 42.851562 19.015625 43.75 18.949219 Z M 52.03125 20.167969 C 51.671875 20.019531 51.285156 19.90625 50.914062 19.90625 C 50.800781 19.90625 50.738281 19.828125 50.671875 19.75 C 50.601562 19.675781 50.503906 19.609375 50.382812 19.550781 C 50.378906 19.550781 50.371094 19.550781 50.367188 19.546875 C 49.042969 19.109375 47.964844 19.679688 46.757812 20.09375 C 45.597656 20.488281 44.28125 20.953125 43.074219 21.121094 C 42.777344 21.164062 42.652344 20.710938 42.949219 20.675781 C 44.164062 20.503906 45.515625 20.074219 46.699219 19.609375 C 45.355469 19.824219 43.992188 19.933594 42.664062 20.214844 C 40.695312 20.632812 38.773438 20.953125 36.757812 20.957031 C 36.457031 20.957031 36.457031 20.488281 36.757812 20.488281 C 38.875 20.488281 40.816406 20 42.890625 19.679688 C 43.949219 19.519531 45.03125 19.40625 46.105469 19.246094 C 45.113281 19.28125 44.121094 19.351562 43.160156 19.488281 C 42.332031 19.609375 41.503906 19.582031 40.671875 19.582031 C 39.664062 19.582031 38.71875 19.738281 37.722656 19.828125 C 36.90625 19.902344 36.0625 20.082031 35.246094 20.082031 C 34.390625 20.082031 32.859375 19.851562 32.09375 20.285156 C 32.054688 20.332031 32 20.367188 31.929688 20.371094 C 30.597656 20.496094 29.28125 20.410156 27.96875 20.675781 C 28.347656 21.3125 29.523438 21.875 30.097656 22.214844 C 30.9375 22.703125 31.769531 23.121094 32.65625 23.523438 C 33.464844 23.894531 34.308594 24.175781 35.101562 24.574219 C 35.585938 24.824219 36.28125 24.972656 36.679688 25.375 C 36.738281 25.429688 36.785156 25.515625 36.785156 25.59375 C 36.785156 25.636719 37.269531 26.007812 37.269531 26.011719 C 37.753906 26.496094 37.695312 26.589844 38.332031 25.742188 C 38.449219 25.582031 38.660156 25.453125 38.835938 25.367188 C 39.535156 25.03125 40.429688 25.144531 41.175781 24.960938 C 41.882812 24.792969 42.277344 24.261719 42.835938 23.859375 C 43.28125 23.382812 43.96875 23.238281 44.523438 22.914062 C 45.265625 22.476562 45.953125 21.917969 46.734375 21.542969 C 47.636719 21.101562 48.234375 20.46875 49.066406 20.09375 C 47.539062 20.125 46.179688 21.28125 44.644531 21.589844 C 44.351562 21.648438 44.226562 21.199219 44.519531 21.140625 C 45.121094 21.019531 45.722656 20.855469 46.269531 20.574219 C 46.546875 20.429688 46.722656 20.289062 47.023438 20.238281 C 47.355469 20.179688 47.652344 20.003906 47.980469 19.933594 C 48.355469 19.847656 48.726562 19.734375 49.105469 19.675781 C 49.566406 19.601562 50.125 19.757812 50.542969 19.9375 C 50.820312 20.054688 50.582031 20.460938 50.308594 20.339844 C 50.246094 20.3125 50.179688 20.285156 50.113281 20.265625 C 50.101562 20.265625 50.097656 20.273438 50.082031 20.277344 C 49.628906 20.347656 49.273438 20.457031 48.945312 20.625 C 49.980469 20.515625 51.003906 20.339844 52.03125 20.167969 Z M 53.5 22.117188 C 53.558594 22.074219 53.46875 21.476562 53.449219 21.402344 C 53.402344 21.179688 53.28125 21.050781 53.160156 20.890625 C 52.605469 20.414062 51.628906 20.683594 50.929688 20.773438 C 50.039062 20.894531 49.210938 21.085938 48.304688 21.160156 C 48.269531 21.164062 48.238281 21.160156 48.207031 21.148438 C 48.164062 21.1875 48.121094 21.226562 48.074219 21.265625 C 47.679688 21.632812 47.167969 21.816406 46.71875 22.105469 C 46.085938 22.515625 45.433594 22.96875 44.757812 23.316406 C 44.214844 23.597656 43.484375 23.777344 43.085938 24.273438 C 43.046875 24.324219 43 24.347656 42.949219 24.347656 C 42.378906 24.789062 42.101562 25.203125 41.296875 25.410156 C 40.414062 25.640625 39.15625 25.410156 38.558594 26.207031 C 38.484375 26.308594 38.363281 26.453125 38.21875 26.585938 C 40.722656 26.082031 43.164062 25.335938 45.632812 24.6875 C 48.277344 23.988281 50.820312 23.21875 53.398438 22.292969 C 53.402344 22.226562 53.433594 22.164062 53.5 22.117188 Z M 54.203125 25.054688 C 54.253906 24.890625 54.253906 24.710938 54.25 24.53125 C 54.089844 24.644531 53.898438 24.734375 53.695312 24.800781 C 53.757812 25.101562 53.820312 25.40625 53.878906 25.707031 C 53.917969 25.886719 53.925781 26.101562 54 26.265625 C 54.011719 26.285156 54.015625 26.3125 54.019531 26.332031 C 54.160156 26.007812 54.164062 25.195312 54.203125 25.054688 Z M 52.792969 24.507812 C 53.308594 24.363281 54.296875 24.28125 54.277344 23.46875 C 54.269531 23.207031 54.253906 22.945312 54.242188 22.6875 C 54.230469 22.683594 54.214844 22.683594 54.207031 22.675781 C 54.140625 22.625 54.035156 22.65625 53.957031 22.644531 C 53.917969 22.640625 53.875 22.632812 53.832031 22.621094 C 53.824219 22.628906 53.816406 22.636719 53.804688 22.640625 C 52.253906 23.207031 50.714844 23.75 49.152344 24.273438 C 47.949219 24.671875 46.683594 24.832031 45.480469 25.230469 C 43.167969 25.996094 40.6875 26.566406 38.304688 27.046875 C 38.292969 27.046875 38.285156 27.046875 38.277344 27.046875 C 37.863281 27.246094 37.429688 27.007812 36.992188 26.960938 C 36.261719 26.886719 35.386719 26.671875 34.6875 26.460938 C 33.074219 25.976562 31.433594 25.625 29.832031 25.089844 C 29.109375 24.851562 28.402344 24.546875 27.679688 24.300781 C 26.847656 24.027344 25.992188 23.957031 25.160156 23.683594 C 24.214844 23.375 23.289062 23.109375 22.335938 22.839844 C 21.707031 22.667969 21.242188 22.515625 20.847656 23.230469 C 20.777344 23.351562 20.652344 23.484375 20.535156 23.609375 C 20.710938 23.648438 20.882812 23.695312 21.058594 23.746094 C 21.96875 24.027344 22.871094 24.339844 23.78125 24.621094 C 25.992188 25.308594 28.199219 26 30.414062 26.691406 C 32.574219 27.371094 34.730469 28.117188 36.914062 28.734375 C 38.0625 29.0625 39.53125 28.429688 40.652344 28.101562 C 41.597656 27.824219 42.539062 27.519531 43.484375 27.238281 C 45.621094 26.597656 47.761719 25.96875 49.898438 25.34375 C 50.863281 25.058594 51.824219 24.773438 52.792969 24.507812 Z M 19.1875 25.945312 C 18.769531 25.964844 18.84375 25.636719 18.84375 25.332031 C 18.84375 25.097656 18.914062 24.761719 18.988281 24.535156 C 19.070312 24.289062 19.097656 23.871094 19.105469 23.613281 C 19.105469 23.589844 19.109375 23.578125 19.117188 23.5625 C 19.0625 23.453125 19.042969 23.296875 18.96875 23.03125 C 18.742188 22.222656 18.550781 21.386719 18.550781 20.542969 C 18.550781 19.59375 18.285156 18.714844 18.179688 17.785156 C 18.046875 16.582031 17.367188 15.0625 17.652344 13.828125 C 17.652344 13.820312 17.648438 13.8125 17.648438 13.808594 C 17.640625 13.734375 17.664062 13.679688 17.703125 13.644531 C 17.707031 13.628906 17.710938 13.617188 17.71875 13.601562 C 17.742188 13.527344 17.792969 13.480469 17.847656 13.460938 C 18.339844 12.515625 20.339844 12.859375 21.191406 12.738281 C 22.832031 12.503906 24.507812 12.378906 26.160156 12.351562 C 27.914062 12.328125 29.765625 12.238281 31.488281 11.890625 C 32.421875 11.703125 33.398438 11.679688 34.34375 11.679688 C 34.691406 11.679688 34.957031 11.597656 35.160156 11.859375 C 35.1875 11.875 35.21875 11.902344 35.242188 11.941406 C 35.3125 12.050781 35.378906 12.164062 35.445312 12.28125 C 35.484375 12.3125 35.511719 12.363281 35.519531 12.417969 C 36.089844 13.488281 36.410156 14.730469 36.777344 15.871094 C 36.941406 15.90625 37.101562 15.957031 37.257812 16.023438 C 37.703125 16.210938 38.441406 16.382812 38.753906 16.765625 C 38.835938 16.867188 38.847656 17.03125 38.734375 17.113281 C 38.730469 17.121094 38.730469 17.132812 38.726562 17.136719 C 38.691406 17.226562 38.671875 17.320312 38.632812 17.40625 C 38.632812 17.40625 38.632812 17.40625 38.628906 17.410156 C 39.65625 17.75 40.894531 17.921875 41.960938 18.039062 C 43.007812 18.15625 43.996094 18.605469 45.019531 18.75 C 45.105469 18.757812 45.152344 18.804688 45.175781 18.859375 C 45.886719 18.820312 46.605469 18.78125 47.316406 18.738281 C 47.679688 18.71875 48.027344 18.742188 48.371094 18.777344 C 48.425781 18.761719 48.472656 18.769531 48.511719 18.785156 C 48.90625 18.828125 49.296875 18.878906 49.699219 18.882812 C 50.082031 18.890625 50.9375 18.878906 51.039062 19.40625 C 51.039062 19.421875 52.660156 19.945312 52.871094 20.054688 C 52.945312 20.09375 52.976562 20.148438 52.984375 20.207031 C 53.3125 20.324219 53.574219 20.566406 53.761719 20.902344 C 53.769531 20.910156 53.773438 20.921875 53.78125 20.933594 C 53.828125 21.019531 53.871094 21.113281 53.910156 21.214844 C 53.933594 21.277344 53.925781 21.328125 53.902344 21.375 C 53.917969 21.464844 53.921875 21.558594 53.933594 21.65625 C 53.953125 21.839844 53.980469 22.015625 53.957031 22.171875 C 53.992188 22.175781 54.027344 22.179688 54.066406 22.179688 C 54.191406 22.1875 54.335938 22.191406 54.441406 22.273438 C 54.492188 22.308594 54.527344 22.355469 54.542969 22.40625 C 54.628906 22.4375 54.695312 22.507812 54.703125 22.617188 C 54.722656 23.027344 54.796875 23.511719 54.679688 23.921875 C 54.722656 23.96875 54.738281 24.035156 54.722656 24.113281 C 54.660156 24.414062 54.78125 24.757812 54.695312 25.042969 C 54.59375 25.375 54.628906 25.726562 54.539062 26.0625 C 54.410156 26.542969 54.496094 26.917969 53.886719 26.933594 C 53.753906 26.941406 53.683594 26.847656 53.667969 26.75 C 53.664062 26.742188 53.660156 26.738281 53.65625 26.730469 C 53.53125 26.535156 53.503906 26.199219 53.460938 25.980469 C 53.390625 25.628906 53.320312 25.277344 53.242188 24.929688 C 52.839844 25.03125 52.425781 25.09375 52.113281 25.183594 C 49.554688 25.925781 46.996094 26.683594 44.441406 27.441406 C 43.21875 27.800781 42.003906 28.203125 40.773438 28.550781 C 39.96875 28.78125 39.125 29.085938 38.28125 29.242188 C 38.28125 29.265625 38.285156 29.28125 38.28125 29.304688 C 38.1875 30.019531 38.003906 30.796875 37.996094 31.515625 C 37.984375 32.003906 37.367188 32.277344 37.367188 32.277344 C 37.28125 32.277344 37.222656 32.207031 37.203125 32.125 C 37.191406 32.101562 37.179688 32.078125 37.171875 32.046875 C 37.003906 31.117188 36.941406 30.179688 36.734375 29.257812 C 35.894531 29.066406 34.972656 28.609375 34.261719 28.386719 C 33.082031 28.015625 31.90625 27.652344 30.730469 27.28125 C 27.910156 26.402344 25.285156 25.617188 22.882812 24.824219 C 22.097656 24.566406 21.257812 24.382812 20.453125 24.152344 C 20.449219 24.167969 20.449219 24.183594 20.441406 24.195312 C 20.269531 24.476562 20.097656 24.785156 20 25.101562 C 19.90625 25.410156 19.632812 25.589844 19.476562 25.855469 C 19.410156 25.980469 19.285156 25.988281 19.1875 25.945312 " fill-opacity="1" fill-rule="nonzero"/></g><path fill="#ffffff" d="M 38.902344 24.800781 C 38.945312 24.921875 38.851562 25.058594 38.738281 25.089844 C 38.617188 25.125 38.507812 25.058594 38.460938 24.949219 C 38.457031 24.941406 38.453125 24.9375 38.453125 24.929688 C 38.453125 24.933594 38.453125 24.9375 38.453125 24.9375 C 38.449219 24.921875 38.433594 24.890625 38.429688 24.882812 C 38.433594 24.890625 38.402344 24.851562 38.398438 24.839844 L 38.398438 24.835938 C 38.390625 24.832031 38.375 24.816406 38.367188 24.808594 C 38.25 24.808594 38.15625 24.683594 38.15625 24.574219 C 38.15625 24.433594 38.261719 24.355469 38.386719 24.339844 C 38.636719 24.308594 38.828125 24.601562 38.902344 24.800781 " fill-opacity="1" fill-rule="nonzero"/><path fill="#ffffff" d="M 37.484375 24.339844 C 37.550781 24.457031 37.5 24.585938 37.398438 24.65625 C 37.316406 24.714844 37.292969 24.695312 37.242188 24.761719 C 37.21875 24.792969 37.191406 24.816406 37.164062 24.84375 C 37.152344 24.855469 37.144531 24.867188 37.132812 24.878906 C 37.113281 24.90625 37.113281 24.914062 37.125 24.898438 C 37.105469 25.023438 36.953125 25.09375 36.839844 25.0625 C 36.710938 25.023438 36.660156 24.898438 36.679688 24.773438 C 36.703125 24.632812 36.820312 24.554688 36.898438 24.449219 C 36.941406 24.394531 36.988281 24.355469 37.046875 24.3125 C 37.078125 24.292969 37.113281 24.277344 37.148438 24.265625 C 37.179688 24.257812 37.183594 24.253906 37.164062 24.253906 C 37.269531 24.183594 37.421875 24.238281 37.484375 24.339844 " fill-opacity="1" fill-rule="nonzero"/><path fill="#ffffff" d="M 33.414062 21.421875 C 33.644531 21.421875 33.644531 21.890625 33.414062 21.890625 C 33.414062 21.890625 33.269531 21.890625 33.207031 21.890625 C 33.117188 21.890625 33.054688 21.855469 33.019531 21.792969 C 33 21.855469 32.953125 21.925781 32.863281 21.9375 C 32.597656 21.984375 32.351562 22.101562 32.089844 22.144531 C 31.839844 22.1875 31.597656 22.183594 31.347656 22.179688 C 31.050781 22.175781 31.046875 21.710938 31.347656 21.710938 C 31.628906 21.714844 31.917969 21.738281 32.183594 21.621094 C 32.359375 21.542969 32.550781 21.511719 32.742188 21.480469 C 32.859375 21.460938 32.945312 21.519531 32.996094 21.601562 C 33.019531 21.511719 33.089844 21.421875 33.207031 21.421875 C 33.269531 21.421875 33.414062 21.421875 33.414062 21.421875 " fill-opacity="1" fill-rule="nonzero"/><path fill="#ffffff" d="M 33.351562 20.605469 C 33.421875 20.71875 33.371094 20.851562 33.269531 20.921875 C 33.230469 20.953125 33.183594 20.964844 33.152344 20.984375 C 33.078125 21.046875 32.980469 21.066406 32.890625 21.011719 C 32.789062 20.953125 32.730469 20.796875 32.804688 20.691406 C 32.84375 20.636719 32.886719 20.589844 32.945312 20.558594 C 32.972656 20.546875 33 20.539062 33.023438 20.527344 C 33.027344 20.527344 33.027344 20.523438 33.035156 20.523438 C 33.136719 20.445312 33.292969 20.5 33.351562 20.605469 " fill-opacity="1" fill-rule="nonzero"/><path fill="#ffffff" d="M 32.105469 20.75 C 32.40625 20.742188 32.402344 21.210938 32.105469 21.21875 C 31.671875 21.226562 31.261719 21.320312 30.847656 21.433594 C 30.542969 21.515625 30.300781 21.683594 29.980469 21.714844 C 29.683594 21.746094 29.6875 21.277344 29.980469 21.246094 C 30.214844 21.222656 30.390625 21.074219 30.609375 21.011719 C 30.769531 20.96875 30.933594 20.953125 31.089844 20.898438 C 31.417969 20.789062 31.757812 20.761719 32.105469 20.75 " fill-opacity="1" fill-rule="nonzero"/><path fill="#000000" d="M 3.257812 47.652344 L 3.257812 44.65625 C 3.257812 43.734375 3.507812 43.0625 4.007812 42.632812 C 4.511719 42.203125 5.167969 41.988281 5.972656 41.988281 C 6.800781 41.988281 7.480469 42.1875 8.015625 42.589844 C 8.542969 42.988281 8.808594 43.539062 8.808594 44.238281 C 8.808594 44.5625 8.742188 44.78125 8.605469 44.898438 C 8.46875 45.015625 8.246094 45.074219 7.929688 45.074219 C 7.363281 45.074219 7.070312 44.898438 7.046875 44.542969 C 7.023438 43.863281 6.6875 43.523438 6.039062 43.523438 C 5.363281 43.523438 5.023438 43.902344 5.023438 44.65625 L 5.023438 47.652344 C 5.023438 48.40625 5.367188 48.785156 6.050781 48.785156 C 6.261719 48.785156 6.4375 48.75 6.578125 48.683594 C 6.714844 48.613281 6.816406 48.511719 6.875 48.371094 C 6.9375 48.230469 6.976562 48.117188 6.996094 48.027344 C 7.015625 47.9375 7.03125 47.8125 7.046875 47.652344 C 7.074219 47.296875 7.367188 47.121094 7.917969 47.121094 C 8.242188 47.121094 8.46875 47.179688 8.605469 47.296875 C 8.742188 47.414062 8.808594 47.632812 8.808594 47.957031 C 8.808594 48.6875 8.542969 49.265625 8.015625 49.6875 C 7.480469 50.109375 6.800781 50.320312 5.972656 50.320312 C 5.167969 50.320312 4.511719 50.105469 4.007812 49.675781 C 3.507812 49.246094 3.257812 48.570312 3.257812 47.652344 Z M 3.257812 47.652344 " fill-opacity="1" fill-rule="nonzero"/><path fill="#000000" d="M 10.742188 47.652344 L 10.742188 44.65625 C 10.742188 43.734375 10.996094 43.0625 11.5 42.632812 C 12.003906 42.203125 12.675781 41.988281 13.511719 41.988281 C 14.359375 41.988281 15.03125 42.203125 15.539062 42.632812 C 16.042969 43.0625 16.292969 43.734375 16.292969 44.65625 L 16.292969 47.652344 C 16.292969 48.570312 16.042969 49.246094 15.539062 49.675781 C 15.03125 50.105469 14.359375 50.320312 13.511719 50.320312 C 12.675781 50.320312 12.003906 50.105469 11.5 49.675781 C 10.996094 49.246094 10.742188 48.570312 10.742188 47.652344 Z M 12.507812 47.652344 C 12.507812 48.40625 12.84375 48.785156 13.511719 48.785156 C 14.191406 48.785156 14.53125 48.40625 14.53125 47.652344 L 14.53125 44.65625 C 14.53125 43.902344 14.191406 43.523438 13.511719 43.523438 C 12.84375 43.523438 12.507812 43.902344 12.507812 44.65625 Z M 12.507812 47.652344 " fill-opacity="1" fill-rule="nonzero"/><path fill="#000000" d="M 18.554688 49.710938 L 18.554688 42.519531 C 18.554688 42.34375 18.640625 42.214844 18.816406 42.125 C 18.988281 42.035156 19.195312 41.988281 19.4375 41.988281 C 19.679688 41.988281 19.886719 42.035156 20.0625 42.125 C 20.234375 42.214844 20.320312 42.34375 20.320312 42.519531 L 20.320312 48.714844 L 22.898438 48.714844 C 23.054688 48.714844 23.179688 48.792969 23.269531 48.941406 C 23.359375 49.09375 23.40625 49.273438 23.40625 49.484375 C 23.40625 49.695312 23.359375 49.878906 23.269531 50.027344 C 23.179688 50.179688 23.054688 50.253906 22.898438 50.253906 L 19.324219 50.253906 C 19.113281 50.253906 18.929688 50.207031 18.78125 50.113281 C 18.632812 50.019531 18.554688 49.882812 18.554688 49.710938 Z M 18.554688 49.710938 " fill-opacity="1" fill-rule="nonzero"/><path fill="#000000" d="M 25.160156 47.652344 L 25.160156 44.65625 C 25.160156 43.734375 25.410156 43.0625 25.910156 42.632812 C 26.410156 42.203125 27.066406 41.988281 27.871094 41.988281 C 28.703125 41.988281 29.382812 42.1875 29.914062 42.589844 C 30.445312 42.988281 30.710938 43.539062 30.710938 44.238281 C 30.710938 44.5625 30.640625 44.78125 30.503906 44.898438 C 30.371094 45.015625 30.144531 45.074219 29.828125 45.074219 C 29.261719 45.074219 28.96875 44.898438 28.949219 44.542969 C 28.921875 43.863281 28.585938 43.523438 27.941406 43.523438 C 27.261719 43.523438 26.921875 43.902344 26.921875 44.65625 L 26.921875 47.652344 C 26.921875 48.40625 27.265625 48.785156 27.949219 48.785156 C 28.160156 48.785156 28.335938 48.75 28.476562 48.683594 C 28.613281 48.613281 28.714844 48.511719 28.777344 48.371094 C 28.835938 48.230469 28.875 48.117188 28.894531 48.027344 C 28.914062 47.9375 28.933594 47.8125 28.949219 47.652344 C 28.976562 47.296875 29.265625 47.121094 29.816406 47.121094 C 30.140625 47.121094 30.371094 47.179688 30.503906 47.296875 C 30.640625 47.414062 30.710938 47.632812 30.710938 47.957031 C 30.710938 48.6875 30.445312 49.265625 29.914062 49.6875 C 29.382812 50.109375 28.703125 50.320312 27.871094 50.320312 C 27.066406 50.320312 26.410156 50.105469 25.910156 49.675781 C 25.410156 49.246094 25.160156 48.570312 25.160156 47.652344 Z M 25.160156 47.652344 " fill-opacity="1" fill-rule="nonzero"/><path fill="#000000" d="M 32.734375 49.710938 L 32.734375 42.519531 C 32.734375 42.34375 32.820312 42.214844 32.992188 42.125 C 33.167969 42.035156 33.375 41.988281 33.613281 41.988281 C 33.855469 41.988281 34.0625 42.035156 34.238281 42.125 C 34.410156 42.214844 34.5 42.34375 34.5 42.519531 L 34.5 45.289062 L 36.746094 45.289062 L 36.746094 42.519531 C 36.746094 42.34375 36.832031 42.214844 37.007812 42.125 C 37.179688 42.035156 37.386719 41.988281 37.628906 41.988281 C 37.871094 41.988281 38.078125 42.035156 38.253906 42.125 C 38.425781 42.214844 38.511719 42.34375 38.511719 42.519531 L 38.511719 49.710938 C 38.511719 49.882812 38.425781 50.019531 38.253906 50.113281 C 38.078125 50.207031 37.871094 50.253906 37.628906 50.253906 C 37.386719 50.253906 37.179688 50.207031 37.007812 50.113281 C 36.832031 50.019531 36.746094 49.882812 36.746094 49.710938 L 36.746094 46.644531 L 34.5 46.644531 L 34.5 49.710938 C 34.5 49.882812 34.410156 50.019531 34.238281 50.113281 C 34.0625 50.207031 33.855469 50.253906 33.613281 50.253906 C 33.375 50.253906 33.167969 50.207031 32.992188 50.113281 C 32.820312 50.019531 32.734375 49.882812 32.734375 49.710938 Z M 32.734375 49.710938 " fill-opacity="1" fill-rule="nonzero"/><path fill="#000000" d="M 40.769531 47.652344 L 40.769531 44.65625 C 40.769531 43.734375 41.023438 43.0625 41.527344 42.632812 C 42.03125 42.203125 42.703125 41.988281 43.539062 41.988281 C 44.386719 41.988281 45.058594 42.203125 45.566406 42.632812 C 46.070312 43.0625 46.320312 43.734375 46.320312 44.65625 L 46.320312 47.652344 C 46.320312 48.570312 46.070312 49.246094 45.566406 49.675781 C 45.058594 50.105469 44.386719 50.320312 43.539062 50.320312 C 42.703125 50.320312 42.03125 50.105469 41.527344 49.675781 C 41.023438 49.246094 40.769531 48.570312 40.769531 47.652344 Z M 42.535156 47.652344 C 42.535156 48.40625 42.871094 48.785156 43.539062 48.785156 C 44.21875 48.785156 44.5625 48.40625 44.5625 47.652344 L 44.5625 44.65625 C 44.5625 43.902344 44.21875 43.523438 43.539062 43.523438 C 42.871094 43.523438 42.535156 43.902344 42.535156 44.65625 Z M 42.535156 47.652344 " fill-opacity="1" fill-rule="nonzero"/><path fill="#000000" d="M 48.582031 49.710938 L 48.582031 42.53125 C 48.582031 42.359375 48.671875 42.222656 48.84375 42.132812 C 49.015625 42.035156 49.222656 41.988281 49.464844 41.988281 C 49.804688 41.988281 50.054688 42.035156 50.214844 42.132812 C 50.378906 42.230469 50.5625 42.476562 50.765625 42.867188 L 52.597656 46.363281 L 52.597656 42.519531 C 52.597656 42.34375 52.683594 42.214844 52.859375 42.125 C 53.03125 42.035156 53.238281 41.988281 53.476562 41.988281 C 53.71875 41.988281 53.929688 42.035156 54.101562 42.125 C 54.277344 42.214844 54.363281 42.34375 54.363281 42.519531 L 54.363281 49.710938 C 54.363281 49.882812 54.277344 50.019531 54.101562 50.113281 C 53.929688 50.207031 53.71875 50.253906 53.476562 50.253906 C 52.996094 50.253906 52.671875 50.09375 52.496094 49.777344 L 50.347656 45.867188 L 50.347656 49.710938 C 50.347656 49.882812 50.261719 50.019531 50.089844 50.113281 C 49.914062 50.207031 49.707031 50.253906 49.464844 50.253906 C 49.222656 50.253906 49.015625 50.207031 48.84375 50.113281 C 48.671875 50.019531 48.582031 49.882812 48.582031 49.710938 Z M 48.582031 49.710938 " fill-opacity="1" fill-rule="nonzero"/><path fill="#000000" d="M 56.710938 49.710938 L 56.710938 42.53125 C 56.710938 42.359375 56.789062 42.222656 56.9375 42.132812 C 57.089844 42.035156 57.269531 41.988281 57.480469 41.988281 L 61.507812 41.988281 C 61.679688 41.988281 61.808594 42.0625 61.898438 42.214844 C 61.992188 42.363281 62.035156 42.542969 62.035156 42.746094 C 62.035156 42.964844 61.988281 43.148438 61.898438 43.300781 C 61.804688 43.449219 61.671875 43.523438 61.507812 43.523438 L 58.476562 43.523438 L 58.476562 45.4375 L 60.171875 45.4375 C 60.335938 45.4375 60.46875 45.503906 60.5625 45.640625 C 60.65625 45.777344 60.703125 45.9375 60.703125 46.125 C 60.703125 46.300781 60.660156 46.453125 60.566406 46.589844 C 60.476562 46.726562 60.34375 46.792969 60.171875 46.792969 L 58.476562 46.792969 L 58.476562 48.714844 L 61.507812 48.714844 C 61.671875 48.714844 61.804688 48.792969 61.898438 48.941406 C 61.988281 49.09375 62.035156 49.277344 62.035156 49.496094 C 62.035156 49.699219 61.992188 49.878906 61.898438 50.027344 C 61.808594 50.179688 61.679688 50.253906 61.507812 50.253906 L 57.480469 50.253906 C 57.269531 50.253906 57.089844 50.207031 56.9375 50.113281 C 56.789062 50.019531 56.710938 49.882812 56.710938 49.710938 Z M 56.710938 49.710938 " fill-opacity="1" fill-rule="nonzero"/><path fill="#000000" d="M 63.539062 48.898438 C 63.539062 48.683594 63.617188 48.472656 63.769531 48.265625 C 63.925781 48.050781 64.105469 47.945312 64.3125 47.945312 C 64.421875 47.945312 64.550781 47.988281 64.6875 48.074219 C 64.828125 48.164062 64.957031 48.257812 65.070312 48.363281 C 65.1875 48.472656 65.351562 48.566406 65.5625 48.652344 C 65.773438 48.742188 65.996094 48.785156 66.230469 48.785156 C 66.527344 48.785156 66.78125 48.722656 67 48.597656 C 67.21875 48.472656 67.328125 48.285156 67.328125 48.035156 C 67.328125 47.789062 67.207031 47.566406 66.960938 47.378906 C 66.714844 47.191406 66.417969 47.019531 66.066406 46.867188 C 65.714844 46.710938 65.363281 46.539062 65.007812 46.347656 C 64.65625 46.152344 64.355469 45.878906 64.113281 45.527344 C 63.867188 45.171875 63.746094 44.75 63.746094 44.261719 C 63.746094 43.476562 64.027344 42.890625 64.59375 42.5 C 65.160156 42.113281 65.839844 41.917969 66.636719 41.917969 C 66.835938 41.917969 67.039062 41.933594 67.253906 41.957031 C 67.46875 41.976562 67.710938 42.019531 67.976562 42.085938 C 68.246094 42.148438 68.464844 42.25 68.632812 42.394531 C 68.804688 42.539062 68.890625 42.710938 68.890625 42.914062 C 68.890625 43.113281 68.828125 43.316406 68.703125 43.523438 C 68.578125 43.734375 68.40625 43.839844 68.1875 43.839844 C 68.097656 43.839844 67.902344 43.769531 67.609375 43.625 C 67.316406 43.484375 66.992188 43.410156 66.636719 43.410156 C 66.261719 43.410156 65.976562 43.476562 65.789062 43.609375 C 65.601562 43.742188 65.507812 43.902344 65.507812 44.089844 C 65.507812 44.265625 65.59375 44.421875 65.773438 44.566406 C 65.949219 44.707031 66.171875 44.832031 66.433594 44.933594 C 66.695312 45.035156 66.984375 45.167969 67.296875 45.328125 C 67.609375 45.492188 67.902344 45.667969 68.164062 45.863281 C 68.429688 46.054688 68.648438 46.320312 68.824219 46.667969 C 69.003906 47.015625 69.089844 47.410156 69.089844 47.855469 C 69.089844 48.648438 68.832031 49.265625 68.3125 49.707031 C 67.792969 50.148438 67.109375 50.367188 66.265625 50.367188 C 65.535156 50.367188 64.898438 50.214844 64.351562 49.914062 C 63.8125 49.613281 63.539062 49.273438 63.539062 48.898438 Z M 63.539062 48.898438 " fill-opacity="1" fill-rule="nonzero"/><path fill="#000000" d="M 12.492188 60.898438 L 12.492188 53.71875 C 12.492188 53.546875 12.566406 53.410156 12.714844 53.320312 C 12.867188 53.222656 13.046875 53.175781 13.257812 53.175781 L 17.183594 53.175781 C 17.355469 53.175781 17.488281 53.25 17.578125 53.402344 C 17.667969 53.550781 17.714844 53.730469 17.714844 53.933594 C 17.714844 54.152344 17.664062 54.335938 17.570312 54.488281 C 17.476562 54.636719 17.347656 54.710938 17.183594 54.710938 L 14.253906 54.710938 L 14.253906 56.625 L 15.960938 56.625 C 16.125 56.625 16.253906 56.691406 16.347656 56.828125 C 16.441406 56.964844 16.492188 57.125 16.492188 57.3125 C 16.492188 57.488281 16.445312 57.640625 16.355469 57.777344 C 16.265625 57.914062 16.132812 57.980469 15.960938 57.980469 L 14.253906 57.980469 L 14.253906 60.898438 C 14.253906 61.070312 14.167969 61.207031 13.996094 61.300781 C 13.820312 61.394531 13.613281 61.441406 13.371094 61.441406 C 13.128906 61.441406 12.921875 61.394531 12.75 61.300781 C 12.578125 61.207031 12.492188 61.070312 12.492188 60.898438 Z M 12.492188 60.898438 " fill-opacity="1" fill-rule="nonzero"/><path fill="#000000" d="M 18.878906 60.714844 C 18.878906 60.695312 18.886719 60.652344 18.902344 60.59375 L 21.003906 53.695312 C 21.0625 53.507812 21.203125 53.363281 21.417969 53.261719 C 21.628906 53.160156 21.878906 53.105469 22.15625 53.105469 C 22.4375 53.105469 22.683594 53.160156 22.898438 53.261719 C 23.113281 53.363281 23.25 53.507812 23.3125 53.695312 L 25.421875 60.59375 C 25.4375 60.652344 25.445312 60.695312 25.445312 60.714844 C 25.445312 60.914062 25.324219 61.082031 25.078125 61.226562 C 24.832031 61.367188 24.578125 61.441406 24.316406 61.441406 C 23.992188 61.441406 23.800781 61.332031 23.738281 61.113281 L 23.355469 59.699219 L 20.972656 59.699219 L 20.585938 61.113281 C 20.523438 61.332031 20.332031 61.441406 20.007812 61.441406 C 19.742188 61.441406 19.488281 61.367188 19.246094 61.226562 C 19 61.082031 18.878906 60.914062 18.878906 60.714844 Z M 21.332031 58.34375 L 22.984375 58.34375 L 22.15625 55.3125 Z M 21.332031 58.34375 " fill-opacity="1" fill-rule="nonzero"/><path fill="#000000" d="M 27.234375 60.90625 L 27.234375 53.71875 C 27.234375 53.546875 27.308594 53.410156 27.457031 53.320312 C 27.609375 53.222656 27.789062 53.175781 28 53.175781 L 30.320312 53.175781 C 31.824219 53.175781 32.578125 53.847656 32.578125 55.1875 C 32.578125 56.09375 32.257812 56.683594 31.621094 56.960938 C 32.003906 57.105469 32.292969 57.3125 32.488281 57.578125 C 32.683594 57.847656 32.785156 58.242188 32.785156 58.773438 L 32.785156 59.007812 C 32.785156 59.855469 32.578125 60.472656 32.167969 60.859375 C 31.757812 61.246094 31.207031 61.441406 30.511719 61.441406 L 28 61.441406 C 27.765625 61.441406 27.582031 61.386719 27.441406 61.285156 C 27.300781 61.179688 27.234375 61.054688 27.234375 60.90625 Z M 28.984375 59.902344 L 30.117188 59.902344 C 30.71875 59.902344 31.019531 59.558594 31.019531 58.863281 L 31.019531 58.679688 C 31.019531 57.988281 30.71875 57.640625 30.117188 57.640625 L 28.984375 57.640625 Z M 28.984375 56.285156 L 30.171875 56.285156 C 30.375 56.285156 30.53125 56.210938 30.644531 56.054688 C 30.761719 55.898438 30.816406 55.714844 30.816406 55.503906 C 30.816406 55.292969 30.761719 55.109375 30.644531 54.949219 C 30.53125 54.792969 30.375 54.710938 30.171875 54.710938 L 28.984375 54.710938 Z M 28.984375 56.285156 " fill-opacity="1" fill-rule="nonzero"/><path fill="#000000" d="M 34.832031 60.898438 L 34.832031 53.707031 C 34.832031 53.5625 34.878906 53.4375 34.984375 53.335938 C 35.085938 53.230469 35.214844 53.175781 35.375 53.175781 L 37.714844 53.175781 C 39.566406 53.175781 40.496094 53.980469 40.496094 55.59375 C 40.496094 56.769531 40.039062 57.535156 39.125 57.890625 L 40.503906 60.386719 C 40.542969 60.441406 40.5625 60.511719 40.5625 60.59375 C 40.5625 60.8125 40.445312 61.019531 40.207031 61.214844 C 39.96875 61.410156 39.71875 61.507812 39.457031 61.507812 C 39.191406 61.507812 39 61.398438 38.890625 61.179688 L 37.339844 58.175781 L 36.59375 58.175781 L 36.59375 60.898438 C 36.59375 61.070312 36.507812 61.207031 36.335938 61.300781 C 36.160156 61.394531 35.953125 61.441406 35.710938 61.441406 C 35.46875 61.441406 35.261719 61.394531 35.089844 61.300781 C 34.917969 61.207031 34.832031 61.070312 34.832031 60.898438 Z M 36.59375 56.816406 L 37.714844 56.816406 C 38.042969 56.816406 38.296875 56.734375 38.46875 56.570312 C 38.644531 56.410156 38.730469 56.140625 38.730469 55.765625 C 38.730469 55.390625 38.644531 55.117188 38.46875 54.957031 C 38.296875 54.792969 38.042969 54.710938 37.714844 54.710938 L 36.59375 54.710938 Z M 36.59375 56.816406 " fill-opacity="1" fill-rule="nonzero"/><path fill="#000000" d="M 42.5625 60.898438 L 42.5625 53.707031 C 42.5625 53.53125 42.648438 53.402344 42.824219 53.3125 C 42.996094 53.222656 43.203125 53.175781 43.445312 53.175781 C 43.6875 53.175781 43.894531 53.222656 44.066406 53.3125 C 44.242188 53.402344 44.328125 53.53125 44.328125 53.707031 L 44.328125 60.898438 C 44.328125 61.070312 44.242188 61.207031 44.066406 61.300781 C 43.894531 61.394531 43.6875 61.441406 43.445312 61.441406 C 43.203125 61.441406 42.996094 61.394531 42.824219 61.300781 C 42.648438 61.207031 42.5625 61.070312 42.5625 60.898438 Z M 42.5625 60.898438 " fill-opacity="1" fill-rule="nonzero"/><path fill="#000000" d="M 46.585938 58.839844 L 46.585938 55.84375 C 46.585938 54.921875 46.839844 54.25 47.339844 53.820312 C 47.839844 53.390625 48.496094 53.175781 49.300781 53.175781 C 50.132812 53.175781 50.8125 53.375 51.34375 53.777344 C 51.871094 54.175781 52.136719 54.726562 52.136719 55.425781 C 52.136719 55.75 52.070312 55.96875 51.933594 56.085938 C 51.800781 56.203125 51.574219 56.261719 51.257812 56.261719 C 50.691406 56.261719 50.398438 56.085938 50.378906 55.730469 C 50.351562 55.050781 50.015625 54.710938 49.371094 54.710938 C 48.691406 54.710938 48.351562 55.089844 48.351562 55.84375 L 48.351562 58.839844 C 48.351562 59.59375 48.695312 59.972656 49.378906 59.972656 C 49.589844 59.972656 49.765625 59.9375 49.90625 59.871094 C 50.042969 59.800781 50.144531 59.699219 50.203125 59.558594 C 50.265625 59.417969 50.304688 59.304688 50.324219 59.214844 C 50.34375 59.125 50.363281 59 50.378906 58.839844 C 50.40625 58.484375 50.695312 58.308594 51.246094 58.308594 C 51.570312 58.308594 51.800781 58.367188 51.933594 58.484375 C 52.070312 58.601562 52.136719 58.820312 52.136719 59.144531 C 52.136719 59.875 51.871094 60.453125 51.34375 60.875 C 50.8125 61.296875 50.132812 61.507812 49.300781 61.507812 C 48.496094 61.507812 47.839844 61.292969 47.339844 60.863281 C 46.839844 60.433594 46.585938 59.757812 46.585938 58.839844 Z M 46.585938 58.839844 " fill-opacity="1" fill-rule="nonzero"/><path fill="#000000" d="M 53.597656 60.714844 C 53.597656 60.695312 53.605469 60.652344 53.621094 60.59375 L 55.722656 53.695312 C 55.785156 53.507812 55.921875 53.363281 56.136719 53.261719 C 56.351562 53.160156 56.597656 53.105469 56.875 53.105469 C 57.15625 53.105469 57.402344 53.160156 57.617188 53.261719 C 57.832031 53.363281 57.96875 53.507812 58.03125 53.695312 L 60.144531 60.59375 C 60.15625 60.652344 60.164062 60.695312 60.164062 60.714844 C 60.164062 60.914062 60.042969 61.082031 59.796875 61.226562 C 59.554688 61.367188 59.300781 61.441406 59.035156 61.441406 C 58.710938 61.441406 58.519531 61.332031 58.460938 61.113281 L 58.074219 59.699219 L 55.691406 59.699219 L 55.304688 61.113281 C 55.242188 61.332031 55.050781 61.441406 54.730469 61.441406 C 54.464844 61.441406 54.210938 61.367188 53.964844 61.226562 C 53.71875 61.082031 53.597656 60.914062 53.597656 60.714844 Z M 56.050781 58.34375 L 57.703125 58.34375 L 56.875 55.3125 Z M 56.050781 58.34375 " fill-opacity="1" fill-rule="nonzero"/><path fill="#000000" d="M 28.214844 64.324219 C 28.539062 64.324219 28.824219 64.40625 29.070312 64.566406 L 28.863281 65 C 28.75 64.933594 28.625 64.878906 28.496094 64.835938 C 28.363281 64.792969 28.253906 64.769531 28.167969 64.769531 C 28.007812 64.769531 27.929688 64.824219 27.929688 64.929688 C 27.929688 65 27.96875 65.054688 28.046875 65.097656 C 28.125 65.136719 28.21875 65.171875 28.332031 65.203125 C 28.445312 65.230469 28.558594 65.269531 28.671875 65.3125 C 28.785156 65.355469 28.882812 65.421875 28.960938 65.519531 C 29.039062 65.613281 29.078125 65.734375 29.078125 65.875 C 29.078125 66.085938 28.992188 66.25 28.828125 66.367188 C 28.667969 66.484375 28.460938 66.542969 28.207031 66.542969 C 28.027344 66.542969 27.847656 66.511719 27.671875 66.449219 C 27.496094 66.386719 27.34375 66.300781 27.214844 66.195312 L 27.429688 65.769531 C 27.539062 65.863281 27.667969 65.941406 27.816406 66.003906 C 27.964844 66.0625 28.097656 66.09375 28.214844 66.09375 C 28.304688 66.09375 28.371094 66.078125 28.421875 66.046875 C 28.472656 66.015625 28.496094 65.96875 28.496094 65.90625 C 28.496094 65.84375 28.46875 65.796875 28.410156 65.757812 C 28.351562 65.714844 28.285156 65.683594 28.199219 65.664062 C 28.113281 65.644531 28.023438 65.621094 27.921875 65.585938 C 27.824219 65.554688 27.730469 65.515625 27.644531 65.476562 C 27.5625 65.4375 27.492188 65.375 27.433594 65.292969 C 27.375 65.207031 27.347656 65.101562 27.347656 64.980469 C 27.347656 64.78125 27.425781 64.625 27.585938 64.503906 C 27.742188 64.386719 27.953125 64.324219 28.214844 64.324219 Z M 28.214844 64.324219 " fill-opacity="1" fill-rule="nonzero"/><path fill="#000000" d="M 31.289062 66.125 L 30.339844 66.125 L 30.179688 66.523438 L 29.609375 66.523438 L 30.550781 64.347656 L 31.117188 64.347656 L 32.03125 66.523438 L 31.445312 66.523438 Z M 31.125 65.703125 L 30.816406 64.902344 L 30.496094 65.703125 Z M 31.125 65.703125 " fill-opacity="1" fill-rule="nonzero"/><path fill="#000000" d="M 34.707031 66.523438 L 34.21875 66.523438 L 33.214844 65.183594 L 33.214844 66.523438 L 32.699219 66.523438 L 32.699219 64.347656 L 33.1875 64.347656 L 34.1875 65.691406 L 34.1875 64.347656 L 34.707031 64.347656 Z M 34.707031 66.523438 " fill-opacity="1" fill-rule="nonzero"/><path fill="#000000" d="M 37.34375 66.0625 L 38.265625 66.0625 L 38.265625 66.523438 L 36.792969 66.523438 L 36.792969 64.347656 L 37.34375 64.347656 Z M 37.34375 66.0625 " fill-opacity="1" fill-rule="nonzero"/><path fill="#000000" d="M 40.953125 64.347656 L 40.953125 65.609375 C 40.953125 65.898438 40.863281 66.125 40.683594 66.296875 C 40.503906 66.464844 40.265625 66.550781 39.960938 66.550781 C 39.65625 66.550781 39.414062 66.464844 39.230469 66.296875 C 39.050781 66.125 38.957031 65.898438 38.957031 65.609375 L 38.957031 64.347656 L 39.511719 64.347656 L 39.511719 65.609375 C 39.511719 65.753906 39.550781 65.871094 39.636719 65.957031 C 39.722656 66.042969 39.832031 66.085938 39.964844 66.085938 C 40.097656 66.085938 40.203125 66.042969 40.28125 65.957031 C 40.359375 65.871094 40.402344 65.757812 40.402344 65.609375 L 40.402344 64.347656 Z M 40.953125 64.347656 " fill-opacity="1" fill-rule="nonzero"/><path fill="#000000" d="M 41.816406 64.347656 L 42.367188 64.347656 L 42.367188 66.523438 L 41.816406 66.523438 Z M 41.816406 64.347656 " fill-opacity="1" fill-rule="nonzero"/><path fill="#000000" d="M 44.105469 64.324219 C 44.429688 64.324219 44.714844 64.40625 44.960938 64.566406 L 44.75 65 C 44.636719 64.933594 44.515625 64.878906 44.382812 64.835938 C 44.253906 64.792969 44.144531 64.769531 44.054688 64.769531 C 43.898438 64.769531 43.820312 64.824219 43.820312 64.929688 C 43.820312 65 43.859375 65.054688 43.9375 65.097656 C 44.015625 65.136719 44.109375 65.171875 44.222656 65.203125 C 44.335938 65.230469 44.449219 65.269531 44.5625 65.3125 C 44.675781 65.355469 44.769531 65.421875 44.847656 65.519531 C 44.925781 65.613281 44.964844 65.734375 44.964844 65.875 C 44.964844 66.085938 44.882812 66.25 44.71875 66.367188 C 44.554688 66.484375 44.347656 66.542969 44.097656 66.542969 C 43.917969 66.542969 43.738281 66.511719 43.5625 66.449219 C 43.386719 66.386719 43.234375 66.300781 43.105469 66.195312 L 43.316406 65.769531 C 43.429688 65.863281 43.558594 65.941406 43.707031 66.003906 C 43.855469 66.0625 43.988281 66.09375 44.105469 66.09375 C 44.195312 66.09375 44.261719 66.078125 44.3125 66.046875 C 44.363281 66.015625 44.386719 65.96875 44.386719 65.90625 C 44.386719 65.84375 44.359375 65.796875 44.300781 65.757812 C 44.242188 65.714844 44.171875 65.683594 44.089844 65.664062 C 44.003906 65.644531 43.910156 65.621094 43.8125 65.585938 C 43.710938 65.554688 43.621094 65.515625 43.535156 65.476562 C 43.453125 65.4375 43.378906 65.375 43.320312 65.292969 C 43.265625 65.207031 43.238281 65.101562 43.238281 64.980469 C 43.238281 64.78125 43.316406 64.625 43.472656 64.503906 C 43.632812 64.386719 43.84375 64.324219 44.105469 64.324219 Z M 44.105469 64.324219 " fill-opacity="1" fill-rule="nonzero"/></svg>