<svg xmlns="http://www.w3.org/2000/svg" width="250" viewBox="0 0 187.5 82.5" height="110" version="1.0"><defs><clipPath id="a"><path d="M33.531 14.39h20.93v53.07H33.53zm0 0"/></clipPath><clipPath id="b"><path d="M56.332 14.754h23.172v52.71H56.332zm0 0"/></clipPath><clipPath id="c"><path d="M8.441 14.395h23.114v53.07H8.44zm0 0"/></clipPath></defs><g clip-path="url(#a)"><path d="M33.531 14.395h20.93v53.062H33.53V14.395"/></g><g clip-path="url(#b)"><path d="M79.602 54.55 56.43 67.814 33.258 54.55V28.027L56.43 14.77l23.172 13.257zm0 0"/></g><g clip-path="url(#c)"><path d="m8.441 27.668 23.172-13.262 23.168 13.262v26.52L31.613 67.448 8.441 54.188zm0 0"/></g><path fill="#fff" d="M18.867 44.188c-.183-.063-.367-.122-.547-.188a1.52 1.52 0 0 1-.16-.063c-.055.477-.164.942-.234 1.407-.035.242-.102.566-.133.847.047-.05.09-.101.133-.156.191-.222.258-.476.379-.742.175-.379.355-.746.562-1.105zm.016-.836c.394-.438.722-.95 1.129-1.356-1.051-2.105-1.93-4.371-2.489-6.656-.3-1.211-.851-2.39-1.351-3.586.242.973.52 1.933.578 2.781.094 1.317.574 2.492.574 3.828 0 1.207.149 2.399.473 3.559.117.426.117 1.277.715 1.383.117.02.238.05.355.07.004-.008.008-.012.016-.023zm4.836-1.508c.074-.824.039-1.735.242-2.543-.254-.11-.625-.13-.89-.18-.301-.066-.575-.184-.9-.215-.425-.043-.823-.18-1.253-.218a1.71 1.71 0 0 1-.254-.051c.262.777.504 2.078.977 2.652.613.055 1.43.328 2.078.555zm.488-3.219a2.57 2.57 0 0 1 .156-.262c-.715-.12-1.351-.449-2.02-.695-.023.02-.034.043-.066.059a.645.645 0 0 1-.414.101c-.136-.008-.281.106-.425.102h-.04c-.011.015-.027.03-.039.047.043 0 .086.003.133.007.328.043.727.157 1.043.239.55.148 1.145.191 1.672.402zm10.457-2.777c.145-.024.281-.059.422-.09-.504.004-1-.008-1.457.031-1.598.14-3.367-.148-4.89.488-1.071.45-2.415.801-3.575.91-.496.047-1.363-.316-1.91-.464-.578-.153-1.125-.328-1.707-.309.262.234.793.445 1.336.652.578.22 2.008.618 2.008.618.062 0 .105.027.148.062 1.047-.562 2.86-.488 3.785-.77 1.871-.57 3.922-.78 5.84-1.128zm.05-.875c.423-.004.954.039 1.454-.004-1.008-.555-2-1.266-3.129-1.348-1.922-.148-3.547.352-5.422.66-1.695.282-3.578.422-5.18 1.043a3.642 3.642 0 0 0-.746.371c.875.012 1.727.293 2.614.41.8.106 1.097.34 1.996.106.617-.164 1.347-.254 1.933-.5 1.286-.535 2.575-.566 3.946-.602.843-.02 1.699-.125 2.535-.136zm7.329-9a.34.34 0 0 1-.121-.125c-.27-.47-3.961.129-4.39.21-.934.188-2 .282-2.95.333-1.152.058-2.281.316-3.441.382-.891.047-1.805-.027-2.688.075-2.02.23-4.113.308-6.14.445-.918.059-5.954-.012-6.223 1.047a.305.305 0 0 1-.14.2c.171 1.28.94 2.401 1.273 3.628.312 1.145.734 2.3 1.093 3.426.641 2.031 1.34 4.035 2.278 5.949a1.92 1.92 0 0 1 .27-.133c-.493-.87-.673-2.11-1.06-2.98a19.913 19.913 0 0 1-1.284-3.992c-.305-1.47-1.079-3.047-1.196-4.524-.086-1.172.059-1.36 1.13-1.625.628-.156 1.316-.125 1.96-.156.871-.04 1.715-.352 2.598-.39 2.222-.09 4.39-.286 6.605-.509 2.29-.234 4.59-.27 6.875-.52 1.86-.194 3.684-.616 5.551-.741zm.836 5.465c0-.012-.004-.02-.008-.032-.035-.832-.394-1.562-.402-2.398-.004-.762-.239-1.547-.364-2.317-1.66.114-3.273.497-4.93.676-1.827.2-3.663.281-5.495.414-2.051.149-4.094.559-6.14.621-1.622.047-3.227.368-4.825.438-.586.027-1.168.074-1.758.125-1.422.12-.918 1.047-.578 2.12.383 1.2.605 2.372.91 3.59.215.856.523 1.692.84 2.52.02 0 .035-.008.05-.008.31 0 .587-.015.887-.003-.3-.168-.55-.403-.648-.758-.383-1.395 2.547-2.09 3.36-2.211 2.527-.38 5.171-1.363 7.718-1.363 1.106 0 1.918.074 2.902.398 1.762-1.762 5.176-1.152 7.422-1.648a8.424 8.424 0 0 1 1.059-.165zm.715-.028c.199 0 .394.012.586.027-.325-1.035-.64-2.12-1.035-3.167.035.246.058.496.05.738-.023.808.367 1.574.399 2.398zm1.816 16.735c-.316-.297-.648-.653-.86-.856-.124-.125-.277-.238-.277-.43 0-.02.004-.03.004-.047h-.004a2.492 2.492 0 0 0-.753-.417c-.793-.317-1.524-.735-2.317-1.063-1.465-.605-2.902-1.34-4.383-1.902-1.582-.602-2.933-1.54-4.297-2.516-.476-.34-1.058-.668-1.503-1.098-.633.418-.657 1.278-.801 1.989a8.272 8.272 0 0 0-.117 1.078c-.016.234-.184.453-.239.676.883.254 1.758.53 2.598.875 2.34.953 4.742 1.527 7.156 2.222 1.406.399 2.848.633 4.258 1.032.305.085.918.3 1.535.457zm.961 6.21c.094-.652.16-1.308.242-1.964-.16.02-.32.039-.48.043-.145.007-.293 0-.446-.008.215 1.047.32 2.094.477 3.148.016-.133.04-.265.055-.398.039-.278.11-.547.152-.82zm-1.676-21.34c.586-.03 1.582.102 2.32.032-.644-.367-1.57-.633-2.066-.754-1.246-.297-2.558-.082-3.793.14-1.66.297-4.242.008-5.77.958 2.473 1.324 4.634.257 7.137-.114.715-.109 1.457-.222 2.172-.261zm2.418.81.059-.095c-.652.051-1.387-.054-1.992-.023-1.254.074-2.528.29-3.75.566-1.457.329-2.742.614-4.051.485.144.094.223.273.176.43.113-.016.222-.028.336-.036a39.84 39.84 0 0 0 5.882-.707c.961-.187 2.243-.66 3.34-.62zm2.325 1.784c.546-.078 1.12-.14 1.687-.242-.977-.183-1.945-.414-2.914-.586-2.875-.504-5.86 1.016-8.766 1.047-2.726.031-5.457.969-8.164 1.387-1.703.265-3.531.594-5.207 1.004-1.656.398-1.527 2.472-1.664 3.863.012 0 .02.004.027.004 1.54.484 3.145.852 4.727 1.277.184-.8.352-1.605.496-2.437.078-.473.195-.95.399-1.387.07-.156.308-.25.503-.324a2.068 2.068 0 0 1-.132-.3c-.055-.173.011-.302.125-.376.039-.078.11-.133.218-.16 2.153-.5 4.278-.352 6.47-.543l.01-.012c.872-.547 2.095-.539 3.224-.496a.329.329 0 0 1 .214-.172c1.797-.5 3.918-1.011 5.801-1.05 1.043-.024 1.942-.364 2.946-.497zm6.402.73c-1.004-.265-2.004-.573-3.031-.71a.325.325 0 0 1-.149.101c-1.883.66-3.844.946-5.836.946-.41 0-2.676.11-2.636.601.812.043 1.593-.117 2.406-.117.496 0 .96-.055 1.445-.12.559-.08 1.078-.302 1.64-.356a20.615 20.615 0 0 1 2.024-.082c1.41 0 2.742-.16 4.137-.262zm12.898 1.891c-.562-.23-1.156-.406-1.738-.406-.176 0-.27-.125-.379-.246a1.562 1.562 0 0 0-.45-.308c-.007 0-.015 0-.026-.004-2.06-.68-3.739.21-5.618.847-1.804.614-3.855 1.332-5.738 1.594-.457.066-.656-.633-.195-.695 1.894-.266 4-.93 5.84-1.653-2.09.336-4.215.504-6.278.942-3.07.648-6.058 1.144-9.199 1.148-.473 0-.469-.722 0-.722 3.293-.004 6.316-.754 9.547-1.25 1.648-.254 3.336-.43 5.008-.676-1.547.05-3.09.16-4.59.375-1.285.183-2.574.148-3.871.148-1.57 0-3.043.239-4.594.38-1.273.112-2.582.39-3.855.39-1.329 0-3.72-.356-4.91.316a.366.366 0 0 1-.258.137c-2.075.191-4.121.055-6.168.469.593.988 2.422 1.855 3.316 2.382a43.95 43.95 0 0 0 3.988 2.032c1.254.57 2.57 1.004 3.805 1.625.758.383 1.84.617 2.46 1.238a.53.53 0 0 1 .165.344c0 .066.75.64.754.644.75.746.66.899 1.652-.422.184-.246.512-.445.785-.578 1.09-.52 2.48-.347 3.641-.629 1.102-.261 1.715-1.082 2.59-1.707.691-.738 1.766-.965 2.625-1.465 1.156-.675 2.226-1.539 3.441-2.125 1.407-.68 2.336-1.664 3.633-2.242-2.379.047-4.492 1.84-6.887 2.317-.457.093-.652-.606-.195-.696.938-.187 1.875-.441 2.727-.875.43-.222.707-.445 1.175-.523.52-.09.98-.36 1.489-.473.586-.133 1.16-.304 1.75-.398.722-.117 1.59.125 2.242.41.43.18.058.805-.363.621-.102-.043-.204-.086-.305-.117-.02.004-.027.016-.05.02-.708.109-1.259.277-1.77.538 1.609-.171 3.203-.44 4.804-.707zm2.29 3.016c.09-.066-.048-.992-.079-1.105-.074-.344-.265-.547-.453-.793-.863-.739-2.383-.325-3.476-.18-1.387.184-2.676.484-4.086.602a.36.36 0 0 1-.149-.02c-.07.059-.133.117-.207.18-.613.566-1.41.847-2.11 1.3-.991.637-2 1.336-3.058 1.875-.847.434-1.98.715-2.601 1.48-.063.08-.133.118-.211.122-.891.68-1.32 1.32-2.57 1.645-1.376.355-3.34-.004-4.27 1.23a4.402 4.402 0 0 1-.531.59c3.902-.785 7.703-1.942 11.55-2.945 4.118-1.079 8.078-2.27 12.094-3.707a.365.365 0 0 1 .156-.274zm1.097 4.55c.078-.253.074-.53.07-.808-.25.172-.547.313-.867.418.098.465.195.938.29 1.407.054.273.07.605.19.859a.35.35 0 0 1 .028.105c.219-.5.227-1.765.289-1.98zm-2.203-.847c.805-.226 2.348-.347 2.312-1.61-.007-.405-.035-.808-.054-1.21-.016-.004-.04-.004-.051-.02-.102-.074-.27-.027-.39-.043-.067-.007-.13-.023-.196-.035-.016.008-.027.02-.043.024a269.69 269.69 0 0 1-7.246 2.53c-1.867.622-3.84.864-5.719 1.481-3.601 1.192-7.46 2.075-11.172 2.817-.02.004-.031 0-.043 0-.644.308-1.316-.059-2.004-.133-1.136-.113-2.496-.445-3.586-.773-2.511-.75-5.062-1.293-7.558-2.125-1.129-.372-2.227-.84-3.352-1.22-1.3-.429-2.633-.538-3.93-.96-1.464-.477-2.91-.89-4.394-1.305-.98-.27-1.703-.5-2.316.606-.106.191-.305.394-.489.586.274.062.543.132.817.214 1.422.43 2.82.918 4.242 1.356 3.441 1.066 6.879 2.137 10.324 3.207 3.367 1.047 6.723 2.207 10.121 3.164 1.793.504 4.078-.477 5.825-.984 1.472-.43 2.937-.899 4.41-1.336 3.328-.992 6.656-1.97 9.988-2.938 1.504-.437 3-.879 4.504-1.293zm-52.328 2.227c-.649.031-.535-.473-.535-.95 0-.363.109-.878.226-1.234.125-.379.168-1.027.18-1.43 0-.03.012-.05.015-.078-.082-.168-.113-.41-.23-.82-.348-1.25-.648-2.55-.648-3.855 0-1.47-.415-2.829-.579-4.274-.203-1.86-1.261-4.219-.82-6.129 0-.008-.004-.02-.004-.027a.301.301 0 0 1 .082-.258c.008-.02.012-.043.024-.066a.34.34 0 0 1 .207-.22c.758-1.46 3.879-.929 5.203-1.116a61.77 61.77 0 0 1 7.738-.594c2.73-.04 5.617-.18 8.297-.719 1.453-.289 2.973-.328 4.445-.328.543 0 .953-.125 1.27.281a.39.39 0 0 1 .129.125c.113.168.215.348.316.528.067.05.106.125.121.21.887 1.657 1.383 3.587 1.953 5.348.254.059.504.133.75.235.696.293 1.844.562 2.332 1.152.125.16.145.414-.035.54a.139.139 0 0 0-.008.038c-.058.137-.09.281-.152.414l-.004.004c1.602.527 3.528.793 5.192.977 1.629.18 3.168.883 4.765 1.097a.28.28 0 0 1 .239.176c1.105-.066 2.222-.125 3.332-.187a9.945 9.945 0 0 1 1.644.058.315.315 0 0 1 .219.016c.617.066 1.222.14 1.851.148.594.012 1.926-.008 2.082.809.004.023 2.528.832 2.856 1.008a.317.317 0 0 1 .18.234c.503.184.914.555 1.207 1.078.011.012.02.028.03.047.071.133.141.281.2.438a.312.312 0 0 1-.008.246c.016.14.028.285.043.433.031.29.078.559.035.801.055.008.114.016.172.016.196.007.422.02.586.14a.42.42 0 0 1 .16.211.344.344 0 0 1 .246.324c.032.637.149 1.383-.03 2.016a.35.35 0 0 1 .066.297c-.098.469.086 1-.047 1.445-.153.512-.102 1.059-.242 1.578-.204.743-.067 1.328-1.016 1.352-.207.008-.317-.133-.34-.29-.008-.01-.012-.01-.02-.023-.19-.304-.234-.828-.304-1.168-.11-.539-.219-1.085-.34-1.625-.629.153-1.273.254-1.758.391-3.984 1.149-7.969 2.32-11.945 3.496-1.906.563-3.8 1.18-5.711 1.719-1.258.355-2.57.836-3.883 1.074.004.035.008.059.004.098-.152 1.11-.434 2.308-.453 3.426-.012.75-.973 1.175-.973 1.175-.136 0-.226-.105-.258-.238-.015-.035-.035-.07-.046-.117-.262-1.441-.36-2.89-.68-4.32-1.309-.293-2.742-1.004-3.856-1.352l-5.5-1.71c-4.39-1.364-8.476-2.579-12.218-3.81-1.223-.398-2.532-.68-3.782-1.039-.007.024-.007.047-.023.067-.262.441-.531.918-.688 1.406-.144.477-.566.758-.808 1.168-.11.191-.3.207-.453.137"/><path fill="#fff" d="M48.293 45.406c.07.188-.074.399-.254.446-.191.054-.36-.051-.434-.22l-.011-.03a.03.03 0 0 1 .004.015c-.012-.023-.032-.074-.04-.086a.6.6 0 0 1-.05-.066v-.004c-.012-.012-.035-.031-.047-.047-.18 0-.332-.191-.332-.36 0-.218.164-.34.363-.363.387-.05.688.407.801.715M46.082 44.691c.105.18.031.38-.129.493-.129.09-.164.058-.242.16-.035.047-.078.086-.121.129a.68.68 0 0 0-.047.054c-.031.043-.035.051-.012.028-.035.195-.27.3-.449.254-.2-.059-.281-.25-.25-.446.04-.215.219-.34.34-.5a.999.999 0 0 1 .234-.21.586.586 0 0 1 .157-.079c.046-.008.054-.011.023-.011.164-.118.402-.032.496.128M39.746 40.172c.363 0 .363.723 0 .723h-.316c-.149 0-.242-.051-.297-.149a.302.302 0 0 1-.242.227c-.414.066-.801.246-1.207.316-.387.066-.762.063-1.157.059-.46-.008-.465-.73 0-.727.442 0 .891.04 1.305-.14.273-.122.57-.169.867-.22a.381.381 0 0 1 .399.188c.035-.136.144-.277.332-.277h.316M39.652 38.906c.106.176.032.38-.129.492-.062.043-.136.067-.183.094-.117.094-.266.13-.41.043-.157-.094-.246-.336-.13-.496a.616.616 0 0 1 .22-.207c.039-.016.082-.031.12-.047.005 0 .005-.004.016-.008.164-.117.403-.035.496.13M37.71 39.129c.466-.008.462.715 0 .726-.675.016-1.315.16-1.96.333-.473.128-.852.386-1.348.433-.465.05-.46-.672 0-.719.364-.039.637-.273.98-.367.247-.062.5-.094.747-.176.512-.168 1.039-.214 1.582-.23"/><path d="M90.747 35.941V32.27c0-1.125.304-1.945.921-2.468.614-.532 1.41-.797 2.391-.797 1.02 0 1.852.246 2.5.734.656.492.984 1.168.984 2.031 0 .399-.085.668-.25.813-.167.137-.445.203-.828.203-.699 0-1.058-.21-1.078-.64-.031-.833-.445-1.25-1.234-1.25-.836 0-1.25.46-1.25 1.374v3.672c0 .93.422 1.391 1.265 1.391.25 0 .458-.04.625-.125a.732.732 0 0 0 .375-.375 2.913 2.913 0 0 0 .22-.89c.03-.426.382-.641 1.062-.641.394 0 .676.074.843.218.165.137.25.403.25.797 0 .899-.328 1.606-.984 2.125-.648.512-1.48.766-2.5.766-.98 0-1.777-.258-2.39-.781-.618-.532-.922-1.36-.922-2.485zM99.908 35.941V32.27c0-1.125.305-1.945.922-2.468.614-.532 1.438-.797 2.469-.797s1.852.265 2.469.797c.625.523.937 1.343.937 2.468v3.672c0 1.125-.312 1.953-.937 2.485-.617.523-1.438.781-2.469.781s-1.855-.258-2.469-.781c-.617-.532-.922-1.36-.922-2.485zm2.157 0c0 .93.41 1.391 1.234 1.391.832 0 1.25-.461 1.25-1.39v-3.673c0-.914-.418-1.375-1.25-1.375-.824 0-1.234.461-1.234 1.375zM109.47 38.457V29.66c0-.207.102-.367.313-.484a1.64 1.64 0 0 1 .765-.172c.29 0 .54.058.75.172.22.117.328.277.328.484v7.594h3.157c.195 0 .347.094.453.281.113.18.172.399.172.656 0 .262-.059.485-.172.672a.496.496 0 0 1-.453.266h-4.375c-.262 0-.485-.055-.672-.172a.552.552 0 0 1-.266-.5zM117.554 35.941V32.27c0-1.125.305-1.945.922-2.468.613-.532 1.41-.797 2.39-.797 1.02 0 1.852.246 2.5.734.657.492.985 1.168.985 2.031 0 .399-.086.668-.25.813-.168.137-.446.203-.828.203-.7 0-1.059-.21-1.079-.64-.03-.833-.445-1.25-1.234-1.25-.836 0-1.25.46-1.25 1.374v3.672c0 .93.422 1.391 1.266 1.391.25 0 .457-.04.625-.125a.732.732 0 0 0 .375-.375 2.913 2.913 0 0 0 .218-.89c.032-.426.383-.641 1.063-.641.395 0 .676.074.844.218.164.137.25.403.25.797 0 .899-.328 1.606-.985 2.125-.648.512-1.48.766-2.5.766-.98 0-1.777-.258-2.39-.781-.617-.532-.922-1.36-.922-2.485zM126.825 38.457V29.66c0-.207.102-.367.313-.484a1.64 1.64 0 0 1 .765-.172c.29 0 .54.058.75.172.219.117.328.277.328.484v3.39h2.75v-3.39c0-.207.102-.367.313-.484a1.64 1.64 0 0 1 .765-.172c.301 0 .555.058.766.172.219.117.328.277.328.484v8.797c0 .219-.11.387-.328.5-.21.117-.465.172-.766.172-.293 0-.546-.055-.765-.172-.211-.113-.313-.281-.313-.5v-3.75h-2.75v3.75c0 .219-.11.387-.328.5a1.52 1.52 0 0 1-.75.172c-.293 0-.547-.055-.765-.172-.211-.113-.313-.281-.313-.5zM136.666 35.941V32.27c0-1.125.305-1.945.922-2.468.613-.532 1.438-.797 2.469-.797s1.851.265 2.469.797c.625.523.937 1.343.937 2.468v3.672c0 1.125-.312 1.953-.937 2.485-.618.523-1.438.781-2.47.781-1.03 0-1.855-.258-2.468-.781-.617-.532-.922-1.36-.922-2.485zm2.157 0c0 .93.41 1.391 1.234 1.391.832 0 1.25-.461 1.25-1.39v-3.673c0-.914-.418-1.375-1.25-1.375-.824 0-1.234.461-1.234 1.375zM146.228 38.457v-8.781c0-.219.102-.383.313-.5a1.64 1.64 0 0 1 .765-.172c.414 0 .723.062.922.187.195.118.422.414.672.891l2.234 4.281V29.66c0-.207.102-.367.313-.484a1.64 1.64 0 0 1 .765-.172c.301 0 .555.058.766.172.219.117.328.277.328.484v8.797c0 .219-.11.387-.328.5-.21.117-.465.172-.766.172-.585 0-.984-.192-1.203-.578l-2.625-4.797v4.703c0 .219-.11.387-.328.5a1.52 1.52 0 0 1-.75.172c-.293 0-.547-.055-.765-.172-.211-.113-.313-.281-.313-.5zM156.179 38.457v-8.781c0-.219.086-.383.265-.5.188-.114.41-.172.672-.172h4.938c.207 0 .363.094.468.281.114.188.172.406.172.656 0 .262-.058.485-.172.672-.117.188-.273.281-.468.281h-3.72v2.344h2.08c.194 0 .35.086.468.25a.923.923 0 0 1 .187.594c0 .21-.058.398-.172.562a.556.556 0 0 1-.484.25h-2.078v2.36h3.719c.195 0 .351.094.468.281.114.18.172.402.172.672 0 .25-.058.469-.172.656a.507.507 0 0 1-.468.266h-4.938c-.262 0-.484-.055-.672-.172a.552.552 0 0 1-.265-.5zM164.538 37.473c0-.258.094-.52.281-.782.188-.257.406-.39.656-.39.133 0 .285.058.453.172.176.105.336.218.485.343.144.125.344.246.594.36.257.105.535.156.828.156.351 0 .664-.07.937-.219.27-.156.406-.383.406-.687 0-.313-.152-.582-.453-.813a5.63 5.63 0 0 0-1.093-.625c-.43-.195-.86-.41-1.297-.64a3.225 3.225 0 0 1-1.11-1c-.293-.438-.437-.957-.437-1.563 0-.957.344-1.672 1.031-2.14.695-.477 1.535-.72 2.516-.72.238 0 .488.016.75.048.257.023.55.074.875.156.332.074.601.2.812.375.207.18.313.39.313.64 0 .243-.078.493-.235.75-.148.262-.355.391-.625.391-.117 0-.355-.086-.718-.266a2.608 2.608 0 0 0-1.172-.265c-.47 0-.82.086-1.047.25-.23.156-.344.351-.344.578 0 .219.11.418.328.594.219.168.488.312.813.437.32.125.672.29 1.047.485.382.199.738.418 1.062.656.32.23.594.558.813.984.218.43.328.914.328 1.453 0 .97-.32 1.727-.953 2.266-.637.543-1.477.812-2.516.812-.899 0-1.68-.18-2.344-.546-.656-.375-.984-.79-.984-1.25zM102.045 52.152V43.37c0-.22.086-.383.265-.5.188-.114.41-.172.672-.172h4.813c.207 0 .363.093.469.281.113.187.171.406.171.656 0 .262-.058.485-.171.672-.118.188-.274.281-.47.281h-3.593v2.344h2.094c.195 0 .351.086.469.25a.99.99 0 0 1 .171.594c0 .21-.058.398-.171.562a.517.517 0 0 1-.47.25h-2.093v3.563c0 .219-.11.387-.328.5a1.52 1.52 0 0 1-.75.172c-.293 0-.547-.055-.766-.172-.21-.113-.312-.281-.312-.5zM109.869 51.933c0-.02.004-.066.015-.14l2.578-8.454c.07-.226.239-.406.5-.53.27-.126.57-.188.907-.188.343 0 .644.062.906.187.27.125.441.305.516.531l2.593 8.453c.008.075.016.122.016.141 0 .242-.152.45-.453.625-.293.18-.602.266-.922.266-.399 0-.633-.133-.703-.407l-.485-1.718h-2.921l-.47 1.718c-.073.274-.308.407-.702.407-.325 0-.637-.086-.938-.266-.293-.176-.437-.383-.437-.625zm3-2.906h2.015l-1.015-3.703zM120.092 52.167v-8.796c0-.22.086-.383.265-.5.188-.114.41-.172.672-.172h2.844c1.844 0 2.765.824 2.765 2.468 0 1.106-.39 1.829-1.171 2.172.468.18.82.434 1.062.766.238.324.36.809.36 1.453v.297c0 1.031-.258 1.79-.766 2.266-.5.468-1.172.703-2.016.703h-3.078c-.281 0-.512-.063-.687-.188-.168-.133-.25-.289-.25-.469zm2.14-1.218h1.39c.74 0 1.11-.426 1.11-1.282v-.218c0-.852-.37-1.282-1.11-1.282h-1.39zm0-4.438h1.453c.25 0 .442-.094.578-.281.145-.188.22-.41.22-.672 0-.258-.075-.484-.22-.672a.667.667 0 0 0-.578-.297h-1.453zM129.392 52.152v-8.797a.62.62 0 0 1 .187-.453.62.62 0 0 1 .469-.203h2.875c2.27 0 3.406.992 3.406 2.968 0 1.438-.558 2.375-1.672 2.813l1.688 3.062c.039.063.062.149.062.25 0 .262-.148.512-.437.75-.293.243-.602.36-.922.36-.324 0-.555-.129-.687-.39l-1.891-3.688h-.922v3.328c0 .219-.11.387-.328.5a1.52 1.52 0 0 1-.75.172c-.293 0-.547-.055-.766-.172-.21-.113-.312-.281-.312-.5zm2.156-4.985h1.375c.406 0 .711-.097.922-.296.219-.196.328-.524.328-.985 0-.469-.11-.8-.328-1-.211-.195-.516-.297-.922-.297h-1.375zM138.858 52.152v-8.797c0-.207.102-.367.313-.484a1.64 1.64 0 0 1 .765-.172c.29 0 .54.058.75.172.219.117.328.277.328.484v8.797c0 .219-.11.387-.328.5a1.52 1.52 0 0 1-.75.172c-.293 0-.547-.055-.765-.172-.211-.113-.313-.281-.313-.5zM143.786 49.636v-3.672c0-1.125.305-1.945.922-2.468.614-.532 1.41-.797 2.391-.797 1.02 0 1.852.246 2.5.734.656.492.984 1.168.984 2.031 0 .399-.086.668-.25.813-.168.137-.445.203-.828.203-.699 0-1.058-.21-1.078-.64-.031-.833-.445-1.25-1.234-1.25-.836 0-1.25.46-1.25 1.374v3.672c0 .93.422 1.39 1.265 1.39.25 0 .457-.038.625-.124a.732.732 0 0 0 .375-.375 2.913 2.913 0 0 0 .22-.89c.03-.427.382-.641 1.062-.641.394 0 .675.074.843.218.164.137.25.403.25.797 0 .899-.328 1.606-.984 2.125-.648.512-1.48.766-2.5.766-.98 0-1.777-.258-2.39-.781-.618-.532-.923-1.36-.923-2.485zM152.37 51.933c0-.02.004-.066.016-.14l2.578-8.454c.07-.226.238-.406.5-.53.27-.126.57-.188.906-.188.344 0 .645.062.906.187.27.125.442.305.516.531l2.594 8.453c.008.075.015.122.015.141 0 .242-.152.45-.453.625-.293.18-.601.266-.922.266-.398 0-.632-.133-.703-.407l-.484-1.718h-2.922l-.469 1.718c-.074.274-.308.407-.703.407-.324 0-.637-.086-.937-.266-.293-.176-.438-.383-.438-.625zm3-2.906h2.016l-1.016-3.703zM121.284 56.358c.406 0 .754.102 1.047.297l-.25.531a2.28 2.28 0 0 0-.453-.203 1.342 1.342 0 0 0-.39-.078c-.2 0-.298.062-.298.187 0 .086.047.153.14.203.095.055.208.102.345.141.144.031.285.074.422.125.132.055.25.137.343.25a.645.645 0 0 1 .157.438.717.717 0 0 1-.297.609c-.2.137-.453.203-.766.203-.219 0-.437-.035-.656-.11a1.577 1.577 0 0 1-.563-.312l.266-.515c.133.117.289.21.469.28.187.075.347.11.484.11a.516.516 0 0 0 .25-.047.192.192 0 0 0 .094-.172c0-.07-.04-.132-.11-.187a.615.615 0 0 0-.25-.11 2.418 2.418 0 0 1-.343-.093 2.074 2.074 0 0 1-.328-.14.663.663 0 0 1-.266-.235.703.703 0 0 1-.094-.375c0-.238.094-.43.281-.578.196-.145.454-.219.766-.219zM125.051 58.561h-1.156l-.203.484h-.688l1.141-2.656h.703l1.11 2.656h-.72zm-.203-.516-.375-.984-.39.984zM129.234 59.045h-.594l-1.218-1.64v1.64h-.641V56.39h.594l1.234 1.64v-1.64h.625zM132.463 58.483h1.125v.562h-1.797V56.39h.672zM136.88 56.39v1.546c0 .344-.11.621-.328.828-.219.211-.512.313-.875.313-.375 0-.68-.102-.906-.313-.22-.207-.328-.484-.328-.828V56.39h.671v1.547c0 .18.051.32.157.422a.539.539 0 0 0 .406.156c.156 0 .281-.05.375-.156a.572.572 0 0 0 .156-.422V56.39zM138.611 59.045h-.672V56.39h.672zM140.735 56.358c.406 0 .754.102 1.047.297l-.25.531a2.28 2.28 0 0 0-.453-.203 1.342 1.342 0 0 0-.39-.078c-.2 0-.298.062-.298.187 0 .086.047.153.141.203.094.055.207.102.344.141.144.031.285.074.422.125.132.055.25.137.343.25a.645.645 0 0 1 .157.438.717.717 0 0 1-.297.609c-.2.137-.453.203-.766.203-.219 0-.437-.035-.656-.11a1.577 1.577 0 0 1-.563-.312l.266-.515c.133.117.29.21.469.28.187.075.347.11.484.11a.516.516 0 0 0 .25-.047.192.192 0 0 0 .094-.172c0-.07-.04-.132-.11-.187a.615.615 0 0 0-.25-.11 2.418 2.418 0 0 1-.343-.093 2.074 2.074 0 0 1-.328-.14.663.663 0 0 1-.266-.235.703.703 0 0 1-.094-.375c0-.238.094-.43.282-.578.195-.145.453-.219.765-.219zm0 0"/></svg>